<?xml version="1.0" encoding="utf-8"?>
<!-- Generator: Adobe Illustrator 21.0.0, SVG Export Plug-In . SVG Version: 6.00 Build 0)  -->
<svg version="1.1" id="Layer_1" xmlns:svgjs="http://svgjs.com/svgjs"
	 xmlns="http://www.w3.org/2000/svg" xmlns:xlink="http://www.w3.org/1999/xlink" x="0px" y="0px" viewBox="0 0 341 61.5"
	 style="enable-background:new 0 0 341 61.5;" xml:space="preserve">
<style type="text/css">
	.st0{fill:none;stroke:#726318;stroke-width:2;}
	.st1{fill:none;stroke:#726318;stroke-width:2;stroke-linecap:round;stroke-linejoin:round;}
	.st2{fill:#726318;}
</style>
<g id="SvgjsG5585" transform="scale(0.48031838247066627)">
	<g id="SvgjsG5586" transform="translate(-0.7103411078762325, -7.925305486770629) scale(5.832487694196558)">
		<path class="st0" d="M1.3,5.5c0.9-2.8,10.4-4.2,11.6-2c0,0,1,4.6,1.1,6c0.1,2-0.3,7-4.4,7.8c-4.5,0.9-6.9-5-6.9-5S1,6.4,1.3,5.5
			L1.3,5.5z"/>
		<path class="st1" d="M4.4,8.3c0,0,1.7-0.1,2-1.3 M11.1,7.1c0,0-1.2,0.8-2.3-0.5 M6.5,12.8c0,0,2.4-2.5,4.3-0.7 M14.5,6.7
			c5.4,0.2,8.2,2,8.3,3.6c0,0-0.9,4.6-1.4,5.9c-0.7,1.9-3.1,6.2-7.2,5.3c-2-0.4-3-1.9-3.6-3.5 M15.2,11.9c0,0,0.1-1-1.1-0.7
			 M17.6,12.2c0,0,1-1,2.4,0.1 M17.3,17.4c0,0-3.3,0.8-4-1.7"/>
	</g>
	<g id="SvgjsG5587" transform="translate(161.7457142857143, 75.18107547497442) scale(1)">
		<path class="st2" d="M22.9,8c4.9,0,9.2-1.6,12.9-4.9c0.3-0.3,0.6-0.5,0.9-0.5c0.2,0,0.5,0.2,0.9,0.6C38,3.8,38.3,4,38.6,4
			c0.6,0,0.9-0.4,0.9-1.2V-7.9c0-0.3,0-0.5,0.1-0.7c0.1-0.5,0.7-0.9,1.8-1.3c1-0.4,1.6-0.9,1.6-1.6c0-0.3-0.1-0.6-0.4-0.9
			c-0.3-0.3-0.7-0.4-1.2-0.4c-0.1,0-0.5,0-1.1,0.1c-0.6,0-1.4,0.1-2.4,0.1c-1,0-2.1,0.1-3.3,0.1h-0.1c-1.1,0-2.2,0-3.2-0.1
			c-1,0-1.7-0.1-2.3-0.1c-0.5,0-0.9-0.1-1-0.1c-0.9,0-1.4,0.5-1.4,1.4c0,0.9,0.6,1.4,1.8,1.5c0.5,0,1.1,0.1,1.8,0.1
			c1.7,0.1,2.8,0.3,3.3,0.6c0.5,0.2,0.8,0.8,0.8,1.6v7.1c0,0.5-0.1,0.9-0.2,1.1c-0.4,0.7-1.6,1.6-3.7,2.6c-2.1,1-4.3,1.5-6.7,1.5
			c-1.8,0-3.6-0.4-5.3-1c-1.8-0.7-3.5-1.8-5.3-3.3S9.8-3.4,8.8-6.3c-1.1-2.9-1.6-6.3-1.6-10.3c0-3.2,0.4-6.1,1.3-8.6
			c0.9-2.5,2-4.4,3.4-5.7c1.4-1.4,2.9-2.4,4.5-3c1.6-0.7,3.2-1,4.9-1c2.7,0,5.2,0.7,7.6,2c2.4,1.3,4.4,3.1,6,5.3
			c0.9,1.2,1.4,2.3,1.8,3.5c0.3,1.1,0.5,1.9,0.6,2.3c0.1,0.4,0.5,0.6,1,0.6c1.2,0,1.8-0.3,1.8-1c0,0,0-0.3-0.1-0.7
			c0-0.4-0.1-1-0.2-1.7c-0.1-0.7-0.1-1.5-0.2-2.4c-0.1-0.9-0.1-2-0.2-3.2c0-1.2-0.1-2.4-0.1-3.6v-1.7c0-0.6-0.3-0.9-0.9-0.9
			c-0.3,0-0.6,0.1-0.8,0.2c-0.1,0-0.5,0.5-1.1,1.3c-0.6,0.8-1.2,1.2-1.6,1.2h-0.2c-0.1,0-0.5-0.2-1.3-0.7c-0.8-0.5-1.6-1-2.6-1.4
			c-1-0.5-2.3-0.9-3.9-1.3c-1.6-0.4-3.3-0.6-5-0.6c-5.9,0-10.8,2.1-15,6.4C2.9-27.3,0.8-22,0.8-15.7C0.8-9.2,3-3.6,7.4,1.1
			C11.8,5.7,17,8,22.9,8z M45.1-15.2c0,0.7,0.3,1.2,0.8,1.7c0.5,0.4,1.1,0.6,1.8,0.6c0.5,0,1-0.2,1.3-0.7c1.4-2.8,3.2-4.2,5.4-4.2
			c1.4,0,2.7,0.6,3.7,1.7c1,1.2,1.5,2.9,1.5,5v2.3c0,0.5-0.2,0.8-0.5,0.9l-0.9,0.1c-0.6,0-1.3,0.1-2.1,0.3c-0.9,0.1-1.8,0.3-2.7,0.5
			c-1,0.2-1.9,0.5-2.9,0.9c-1,0.4-1.8,0.8-2.4,1.3c-1.8,1.4-2.6,3.2-2.6,5.6v0.1c0,2,0.7,3.6,2,5c1.3,1.3,3.1,2,5.2,2
			c2,0,4-0.6,5.8-1.7c0.5-0.3,0.8-0.5,1-0.8c0.2-0.2,0.4-0.4,0.4-0.5c0-0.1,0.1-0.1,0.2-0.1c0,0,0.1,0,0.1,0c0,0,0,0,0.1,0l0.2,0.2
			c0.2,0.2,0.4,0.4,0.7,0.7c0.3,0.2,0.6,0.5,0.9,0.8c0.3,0.3,0.7,0.5,1.2,0.6c0.5,0.2,1,0.2,1.5,0.2c1.4,0,2.6-0.6,3.5-1.8
			c0.9-1.2,1.4-2.2,1.4-3.2c0-0.5-0.2-0.8-0.6-0.8c-0.2,0-0.5,0.2-0.6,0.5c-0.2,0.4-0.4,0.7-0.8,1.1c-0.3,0.3-0.8,0.5-1.4,0.5
			c-0.3,0-0.6,0-0.9-0.2C65,3.3,64.8,3,64.5,2.6c-0.3-0.5-0.4-1-0.4-1.8v-12.4c0-0.5,0-1.3-0.1-2.3c-0.2-1.4-0.6-2.6-1.3-3.7
			c-0.7-1-1.6-1.7-2.6-2.1c-1-0.4-2-0.7-2.8-0.9c-0.8-0.2-1.6-0.2-2.4-0.2c-2.5,0-4.7,0.6-6.7,1.9C46.1-17.7,45.1-16.4,45.1-15.2z
			 M54,4.3c-1.2,0-2.1-0.3-2.7-0.8C50.5,2.8,50,1.6,50,0c0-1.5,0.5-2.6,1.5-3.4c0.9-0.9,2.1-1.4,3.7-1.8C56.7-5.5,58-5.7,59-5.7
			c0.3,0,0.5,0.1,0.5,0.3c0.1,0.2,0.1,0.7,0.1,1.5v2.6v1.5c0,0.6-0.1,1.1-0.4,1.4c-0.2,0.2-0.5,0.5-0.8,0.9
			c-0.3,0.3-0.9,0.7-1.8,1.1C55.9,4.1,55,4.3,54,4.3z M84.2,5.6c0-0.7-0.4-1.2-1.1-1.3c-0.2,0-0.4-0.1-0.8-0.1
			c-0.4,0-0.6-0.1-0.7-0.1c-0.1,0-0.3-0.1-0.5-0.1C81,4,80.8,3.9,80.8,3.9c-0.1,0-0.2-0.1-0.3-0.2c-0.1-0.1-0.2-0.2-0.3-0.2
			c0-0.1-0.1-0.2-0.1-0.3C80,2.9,80,2.8,80,2.6c0-0.2,0-0.4,0-0.6v-39.8c0-0.8-0.3-1.2-0.9-1.2c-0.3,0-0.5,0.1-0.8,0.2
			c-1.7,0.9-3.5,1.8-5.4,2.8c-1.6,0.8-2.3,1.3-2.3,1.5v0.1c0,0.1,0,0.2,0.1,0.3c0.1,0.1,0.2,0.2,0.4,0.4c0.2,0.1,0.4,0.3,0.6,0.4
			c0.2,0.1,0.5,0.3,1,0.6c0.5,0.3,0.9,0.5,1.3,0.8c0.1,0,0.2,0.1,0.4,0.2c0.2,0.1,0.3,0.2,0.4,0.2c0.1,0,0.1,0.1,0.2,0.2
			c0.1,0.1,0.2,0.1,0.2,0.2c0,0.1,0.1,0.1,0.1,0.2c0,0.1,0.1,0.2,0.1,0.3c0,0.1,0,0.2,0,0.3v32c0,0.7-0.1,1.3-0.3,1.7
			c-0.2,0.4-0.7,0.6-1.4,0.7c-1.2,0.1-1.9,0.3-2.2,0.4C71.1,4.6,71,5,71,5.5v0.2c0,0.7,0.3,1.1,0.9,1.1c0,0,0.2,0,0.4,0
			c0.2,0,0.5-0.1,0.8-0.1c0.4,0,0.7-0.1,1.2-0.1c0.5,0,1,0,1.5-0.1c0.6,0,1.1,0,1.7,0c0.6,0,1.2,0,1.8,0c0.6,0,1.1,0,1.6,0.1
			c0.5,0,0.9,0.1,1.2,0.1c0.4,0,0.7,0.1,0.9,0.1c0.2,0,0.4,0,0.4,0C83.9,6.9,84.2,6.4,84.2,5.6z M86.3-6.5c0,2.5,0.4,4.8,1.1,6.7
			c0.8,1.9,1.8,3.4,3,4.4s2.5,1.8,3.9,2.3c1.3,0.5,2.7,0.7,4.1,0.7c2.2,0,4.2-0.5,6.2-1.5c2-1,3.6-2.4,4.9-4.1
			c0.3-0.4,0.5-0.7,0.5-1c0-0.6-0.4-0.9-1.1-0.9c-0.4,0-0.8,0.3-1.4,0.9c-2.1,2.1-4.6,3.1-7.5,3.1c-1.5,0-2.8-0.3-4-0.9
			c-1.2-0.6-2.1-1.3-2.7-2.1c-0.6-0.8-1.2-1.7-1.6-2.6c-0.4-0.9-0.7-1.7-0.8-2.3c-0.1-0.6-0.2-1-0.2-1.2c0-0.2,0.1-0.3,0.2-0.4
			c0.2-0.1,4.6-1.7,13.1-4.6c0.2,0,0.6-0.2,1.2-0.4c0.6-0.2,1.1-0.4,1.4-0.5c0.3-0.1,0.7-0.3,1.2-0.5c0.5-0.2,0.8-0.5,1-0.8
			c0.2-0.3,0.3-0.6,0.3-1v-0.1c0-0.5-0.2-0.9-0.5-1.4c-1.3-1.7-2.9-3.2-4.8-4.3s-3.9-1.7-6-1.7c-3.2,0-6,1.3-8.2,3.9
			C87.4-14.1,86.3-10.7,86.3-6.5z M103.1-13c0,0.3-0.2,0.5-0.5,0.7c-0.1,0-2.1,0.8-5.9,2.3c-3.8,1.5-5.8,2.2-5.9,2.2
			c-0.2,0-0.3-0.2-0.3-0.5c0-2.8,0.5-5,1.6-6.6c1.1-1.6,2.6-2.4,4.4-2.4c1.6,0,3,0.6,4.5,1.7C102.4-14.3,103.1-13.5,103.1-13z
			 M119.6-17.2c-0.1,0-0.2-0.1-0.2-0.3V-20c0-0.9-0.2-1.3-0.7-1.3c-0.1,0-0.2,0-0.4,0.1c-0.1,0-0.1,0.1-0.2,0.1
			c-1.2,0.6-2.6,1.3-4.1,2c-1.7,0.8-2.5,1.2-2.5,1.4c0,0.2,0.1,0.3,0.2,0.4c0.4,0.3,0.9,0.7,1.5,1c0.5,0.4,0.9,0.6,1.1,0.7
			c0.2,0.1,0.4,0.3,0.5,0.5c0.2,0.2,0.3,0.4,0.3,0.5c0,0.1,0.1,0.3,0.1,0.6V2.8c0,0.8-0.4,1.3-1.2,1.5c-0.3,0.1-0.7,0.2-1.1,0.2
			c-0.5,0.1-0.8,0.1-0.9,0.2c-0.2,0.1-0.3,0.2-0.5,0.4c-0.2,0.2-0.2,0.5-0.2,0.8c0,0.7,0.3,1.1,1,1.1c0,0,0.2,0,0.4,0
			c0.2,0,0.5,0,0.9-0.1c0.4,0,0.8-0.1,1.4-0.1c0.5,0,1.1-0.1,1.8-0.1c0.7,0,1.3,0,2,0c0.6,0,1.2,0,1.9,0c0.7,0,1.3,0,1.8,0.1
			c0.5,0,0.9,0.1,1.4,0.1c0.4,0,0.7,0.1,1,0.1c0.2,0,0.4,0,0.4,0c0.6,0,0.9-0.4,0.9-1.2c0-0.6-0.2-0.9-0.5-1.1s-1.2-0.3-2.4-0.3
			c-0.7,0-1.2-0.1-1.7-0.1c-1-0.1-1.5-0.7-1.5-1.9V1.9v-15c0-0.5,0.1-0.9,0.2-1.2c0.3-0.4,0.9-0.9,2-1.6c1-0.7,2-1,2.9-1
			c0.7,0,1.4,0.3,2.1,0.8c0.6,0.5,1.2,0.8,1.7,0.8c0.3,0,0.6-0.1,0.9-0.2c0.3-0.1,0.6-0.3,1-0.7c0.4-0.3,0.6-0.5,0.6-0.5l0.4-0.4
			c0.3-0.2,0.5-0.4,0.6-0.5c0.1-0.1,0.3-0.3,0.4-0.5c0.2-0.3,0.2-0.5,0.2-0.7v-0.1c0-0.8-0.5-1.5-1.6-2c-1.1-0.5-2.2-0.8-3.3-0.8
			c-0.7,0-1.4,0.1-1.8,0.2s-1.3,0.6-2.3,1.3c-1.1,0.7-2,1.3-2.9,1.9C120.1-17.5,119.7-17.2,119.6-17.2z M138.9-1.1v3
			c0,0.7-0.1,1.2-0.3,1.6c-0.2,0.4-0.6,0.6-1.4,0.7c-1.6,0.2-2.5,0.4-2.7,0.5c-0.3,0.1-0.4,0.5-0.4,1.2s0.3,1.1,1,1.1
			c0,0,0.2,0,0.4,0c0.2,0,0.5,0,0.9-0.1c0.4,0,0.8-0.1,1.2-0.1c0.4,0,1-0.1,1.6-0.1c0.6,0,1.2,0,1.8,0s1.2,0,1.8,0
			c0.6,0,1.1,0,1.6,0.1c0.5,0,0.9,0.1,1.2,0.1c0.4,0,0.7,0.1,0.9,0.1c0.2,0,0.3,0,0.4,0c0.5,0,0.7-0.5,0.7-1.4
			c0-0.5-0.2-0.8-0.5-0.9c-0.3-0.1-1.1-0.3-2.3-0.4c-0.7-0.1-1.1-0.5-1.2-1.2c-0.1-0.7-0.2-3-0.2-6.9V-6c0-2.3,0-4.5,0.1-6.8
			c0.1-2.3,0.1-4.1,0.2-5.4l0.1-2c0-0.7-0.3-1-0.9-1h-0.1c0,0-2.3,1.1-6.9,3.3c-0.1,0-0.2,0.1-0.4,0.2c-0.2,0.1-0.4,0.2-0.5,0.2
			c-0.1,0.1-0.3,0.1-0.4,0.2c-0.1,0.1-0.2,0.2-0.3,0.3c-0.1,0.1-0.1,0.2-0.1,0.4c0,0.3,0.3,0.6,0.8,0.8c2.2,0.9,3.5,1.4,3.8,1.6
			c0.3,0.2,0.5,0.5,0.5,1c0,0.2,0,0.8,0,1.9c0,1.1,0,2.5,0,4.3V-1.1z M139.5-32.4c0,0.9,0.3,1.6,0.9,2.1c0.6,0.6,1.3,0.8,2.1,0.8
			s1.6-0.3,2.2-0.9c0.6-0.6,0.9-1.3,0.9-2.2c0-0.8-0.3-1.4-0.9-2c-0.6-0.6-1.3-0.9-2.1-0.9c-0.8,0-1.5,0.3-2.1,0.9
			C139.8-33.9,139.5-33.2,139.5-32.4z M166-25.9c0,2.2,0.6,4.2,1.9,6c1.3,1.8,3.1,3.2,5.6,4.2c0.9,0.4,2.7,0.9,5.5,1.6
			c2.8,0.7,4.9,1.5,6.3,2.5c2.5,1.8,3.7,4.1,3.7,6.9c0,2.5-0.9,4.5-2.7,6.2c-1.8,1.7-4,2.5-6.5,2.5c-3.3,0-6-1.4-8.1-4.2
			c-0.2-0.2-0.4-0.5-0.7-0.8c-0.2-0.3-0.4-0.5-0.4-0.6c0-0.1-0.1-0.2-0.2-0.3c-0.1-0.1-0.1-0.3-0.1-0.5s0-0.4,0-0.5
			c0-0.2,0-0.6-0.1-1.1c0-0.5-0.1-1-0.1-1.5c-0.2-1.7-0.4-2.7-0.5-3.1c-0.1-0.4-0.5-0.5-1.2-0.5c-0.9,0-1.3,0.4-1.4,1.4
			c-0.2,2.1-0.4,3.9-0.6,5.5c-0.2,1.6-0.4,2.8-0.6,3.4c-0.2,0.7-0.2,1.1-0.2,1.2c0,0.7,0.4,1,1.1,1c0.2,0,0.4,0,0.8-0.1
			c0.4-0.1,0.7-0.1,0.9-0.1c0.6,0,1.2,0.3,1.9,0.9c2.6,2.3,5.8,3.4,9.6,3.4c3.8,0,7.1-1.3,9.8-3.9c2.7-2.6,4-5.8,4-9.6
			c0-2.7-0.7-5.1-2.2-7.2c-1.5-2-3.4-3.5-5.7-4.6c-0.9-0.4-2.8-1-5.7-1.7c-2.9-0.7-4.9-1.5-6.2-2.5c-2.2-1.6-3.3-3.5-3.3-5.7
			c0-1.6,0.6-3,1.8-4.2c1.2-1.2,2.6-1.7,4.4-1.7c2.5,0,4.8,1.2,6.9,3.5c0.8,0.9,1.5,1.9,1.9,3c0.5,1,0.9,1.8,1.1,2.2
			c0.3,0.4,0.7,0.6,1.3,0.6h0.1c0.7,0,1.1-0.3,1.1-0.9c0-0.1,0-0.3-0.1-0.8c0-0.4-0.1-1-0.2-1.8c-0.1-0.8-0.1-1.6-0.1-2.5
			s0-1.8,0.1-2.5c0.1-0.8,0.1-1.4,0.2-1.9c0-0.4,0.1-0.7,0.1-0.8c0-0.3-0.1-0.6-0.3-0.8c-0.2-0.2-0.5-0.3-0.7-0.3
			c-0.6,0-1.1,0.4-1.6,1.3c-0.5,0.8-0.8,1.3-1.1,1.3c-0.1,0-0.5-0.2-1.2-0.6c-0.7-0.4-1.6-0.8-2.8-1.3c-1.2-0.4-2.6-0.6-4.1-0.6
			c-3.2,0-5.9,1.1-8,3.2C167.1-31.3,166-28.8,166-25.9z M196.3-6.5c0,2.5,0.4,4.8,1.1,6.7c0.8,1.9,1.8,3.4,3,4.4
			c1.2,1,2.5,1.8,3.9,2.3c1.3,0.5,2.7,0.7,4.1,0.7c2.2,0,4.2-0.5,6.2-1.5c2-1,3.6-2.4,4.9-4.1c0.3-0.4,0.5-0.7,0.5-1
			c0-0.6-0.3-0.9-1-0.9c-0.4,0-0.8,0.3-1.4,0.9c-2.1,2.1-4.6,3.1-7.5,3.1c-1.5,0-2.8-0.3-4-0.9c-1.2-0.6-2.1-1.3-2.7-2.1
			c-0.6-0.8-1.2-1.7-1.6-2.6c-0.4-0.9-0.7-1.7-0.8-2.3c-0.1-0.6-0.2-1-0.2-1.2c0-0.2,0.1-0.3,0.2-0.4c0.2-0.1,4.6-1.7,13.1-4.6
			c0.2,0,0.6-0.2,1.2-0.4c0.6-0.2,1.1-0.4,1.4-0.5c0.3-0.1,0.7-0.3,1.2-0.5c0.5-0.2,0.8-0.5,1-0.8c0.2-0.3,0.3-0.6,0.3-1v-0.1
			c0-0.5-0.2-0.9-0.5-1.4c-1.3-1.7-2.9-3.2-4.8-4.3c-1.9-1.1-3.9-1.7-6-1.7c-3.2,0-6,1.3-8.2,3.9C197.4-14.1,196.3-10.7,196.3-6.5z
			 M213.1-13c0,0.3-0.2,0.5-0.6,0.7c-0.1,0-2.1,0.8-5.9,2.3c-3.8,1.5-5.8,2.2-5.9,2.2c-0.2,0-0.3-0.2-0.3-0.5c0-2.8,0.5-5,1.6-6.6
			c1.1-1.6,2.5-2.4,4.4-2.4c1.6,0,3.1,0.6,4.5,1.7C212.4-14.3,213.1-13.5,213.1-13z M229.4-17.2v-0.1c0-0.1,0.1-0.2,0.1-0.2V-20
			c0-0.6-0.2-0.9-0.7-0.9c-0.2,0-0.4,0.1-0.6,0.2c-0.8,0.4-1.7,0.9-2.9,1.5c-1.5,0.8-2.4,1.2-2.6,1.4c-0.3,0.2-0.4,0.4-0.4,0.6v0.1
			c0,0.2,0.1,0.4,0.4,0.6c1.5,1.1,2.3,1.8,2.5,2.1c0.2,0.3,0.3,0.8,0.3,1.5v15c0,0.7-0.1,1.1-0.3,1.5c-0.2,0.3-0.7,0.6-1.4,0.7
			c-1.1,0.2-1.8,0.3-2.1,0.5c-0.3,0.1-0.4,0.5-0.4,1.1c0,0.7,0.4,1.1,1,1.1c0,0,0.2,0,0.4,0c0.2,0,0.5,0,0.8-0.1
			c0.3,0,0.7-0.1,1.1-0.1c0.4,0,0.9-0.1,1.5-0.1c0.6,0,1.1,0,1.7,0c0.6,0,1.2,0,1.8,0c0.6,0,1.1,0.1,1.6,0.1
			c0.5,0.1,0.9,0.1,1.2,0.2c0.4,0,0.7,0.1,0.9,0.1c0.2,0,0.4,0,0.4,0c0.5,0,0.8-0.4,0.8-1.1c0-0.5-0.1-0.8-0.4-1
			c-0.2-0.2-1.2-0.4-3-0.7c-0.9-0.1-1.4-0.7-1.4-1.8V2.1v-14.9c0-0.2,0-0.5,0.1-0.9c0.2-0.7,0.9-1.6,2.2-2.6c1.3-1,2.7-1.5,4.3-1.5
			c1.1,0,2.3,0.3,3.5,0.8c1.2,0.6,2.2,1.5,2.8,2.9c0.6,1.5,0.9,3.7,0.9,6.8v9.8c0,0.5-0.1,0.9-0.2,1.1c-0.1,0.2-0.4,0.3-0.8,0.4
			c-0.2,0-0.5,0.1-0.9,0.2c-1.1,0.2-1.7,0.3-2,0.4c-0.2,0.1-0.4,0.4-0.4,0.9c0,0.8,0.3,1.2,0.9,1.2h0.3c0.2,0,0.5-0.1,0.8-0.1
			c0.3,0,0.7-0.1,1.1-0.1c0.4,0,0.9-0.1,1.4-0.1c0.5,0,1.1,0,1.6,0c0.9,0,1.8,0,2.6,0.1c0.8,0.1,1.4,0.1,1.9,0.2
			c0.5,0.1,0.7,0.1,0.9,0.1c0.7,0,1-0.4,1-1.2c0-0.7-0.3-1.1-0.9-1.2c-0.2,0-0.4-0.1-0.8-0.1c-0.3,0-0.6-0.1-0.7-0.1
			c-0.1,0-0.3,0-0.5-0.1c-0.2-0.1-0.4-0.1-0.4-0.2c-0.1,0-0.2-0.1-0.3-0.2c-0.1-0.1-0.2-0.2-0.2-0.3c0-0.1,0-0.2-0.1-0.4
			c0-0.2-0.1-0.4-0.1-0.6V2.4c0-2.5,0-4.6,0-6.3c0-1.6,0-2.8,0-3.4v-1.2c0-1.4,0-2.5-0.1-3.2c-0.2-1.8-0.6-3.4-1.2-4.7
			c-0.7-1.3-1.5-2.2-2.4-2.8c-1-0.6-1.9-1-2.7-1.2c-0.8-0.2-1.7-0.3-2.5-0.3h-0.1c-1,0-2,0.1-3,0.4c-0.9,0.3-1.7,0.6-2.4,1
			c-0.7,0.4-1.2,0.7-1.7,1.1c-0.5,0.4-0.9,0.7-1.1,0.9c-0.3,0.2-0.4,0.4-0.5,0.4h-0.1C229.5-17,229.4-17,229.4-17.2z M257.8-1.1v3
			c0,0.7-0.1,1.2-0.3,1.6c-0.2,0.4-0.6,0.6-1.4,0.7c-1.6,0.2-2.5,0.4-2.7,0.5c-0.3,0.1-0.4,0.5-0.4,1.2s0.3,1.1,1,1.1
			c0,0,0.2,0,0.4,0c0.2,0,0.5,0,0.9-0.1c0.4,0,0.8-0.1,1.2-0.1c0.4,0,0.9-0.1,1.6-0.1c0.6,0,1.2,0,1.8,0c0.6,0,1.2,0,1.8,0
			c0.6,0,1.1,0,1.6,0.1c0.4,0,0.9,0.1,1.2,0.1c0.4,0,0.7,0.1,0.9,0.1c0.2,0,0.3,0,0.4,0c0.5,0,0.7-0.5,0.7-1.4
			c0-0.5-0.2-0.8-0.5-0.9c-0.3-0.1-1.1-0.3-2.3-0.4c-0.7-0.1-1.1-0.5-1.2-1.2c-0.1-0.7-0.2-3-0.2-6.9V-6c0-2.3,0-4.5,0.1-6.8
			c0.1-2.3,0.1-4.1,0.2-5.4l0.1-2c0-0.7-0.3-1-0.9-1h-0.1c0,0-2.4,1.1-6.9,3.3c-0.1,0-0.2,0.1-0.4,0.2c-0.2,0.1-0.4,0.2-0.5,0.2
			c-0.1,0.1-0.3,0.1-0.4,0.2c-0.1,0.1-0.2,0.2-0.3,0.3c-0.1,0.1-0.1,0.2-0.1,0.4c0,0.3,0.3,0.6,0.8,0.8c2.2,0.9,3.5,1.4,3.8,1.6
			c0.3,0.2,0.5,0.5,0.5,1c0,0.2,0,0.8,0,1.9c0,1.1,0,2.5,0,4.3V-1.1z M258.4-32.4c0,0.9,0.3,1.6,0.9,2.1c0.6,0.6,1.3,0.8,2.2,0.8
			c0.9,0,1.6-0.3,2.2-0.9c0.6-0.6,0.9-1.3,0.9-2.2c0-0.8-0.3-1.4-0.9-2c-0.6-0.6-1.3-0.9-2.1-0.9c-0.8,0-1.5,0.3-2.1,0.9
			C258.7-33.9,258.4-33.2,258.4-32.4z M305.9,8c4.9,0,9.2-1.6,12.9-4.9c0.3-0.3,0.6-0.5,0.9-0.5c0.2,0,0.5,0.2,0.9,0.6
			c0.4,0.4,0.8,0.6,1,0.6c0.6,0,0.9-0.4,0.9-1.2V-7.9c0-0.3,0-0.5,0.1-0.7c0.1-0.5,0.7-0.9,1.8-1.3c1.1-0.4,1.6-0.9,1.6-1.6
			c0-0.3-0.1-0.6-0.4-0.9c-0.3-0.3-0.7-0.4-1.2-0.4c-0.1,0-0.5,0-1.1,0.1c-0.6,0-1.4,0.1-2.4,0.1c-1,0-2.1,0.1-3.3,0.1h-0.1
			c-1.1,0-2.2,0-3.2-0.1c-1,0-1.7-0.1-2.3-0.1c-0.5,0-0.9-0.1-1-0.1c-0.9,0-1.4,0.5-1.4,1.4c0,0.9,0.6,1.4,1.8,1.5
			c0.5,0,1,0.1,1.8,0.1c1.7,0.1,2.8,0.3,3.3,0.6c0.5,0.2,0.8,0.8,0.8,1.6v7.1c0,0.5-0.1,0.9-0.2,1.1c-0.4,0.7-1.6,1.6-3.7,2.6
			c-2.1,1-4.3,1.5-6.7,1.5c-1.8,0-3.6-0.4-5.3-1c-1.8-0.7-3.5-1.8-5.3-3.3s-3.2-3.7-4.2-6.6s-1.6-6.3-1.6-10.3
			c0-3.2,0.4-6.1,1.3-8.6c0.9-2.5,2-4.4,3.4-5.7c1.4-1.4,2.9-2.4,4.5-3c1.6-0.7,3.2-1,4.9-1c2.7,0,5.2,0.7,7.6,2
			c2.4,1.3,4.4,3.1,6,5.3c0.9,1.2,1.4,2.3,1.8,3.5c0.3,1.1,0.5,1.9,0.6,2.3c0.1,0.4,0.5,0.6,1,0.6c1.2,0,1.8-0.3,1.8-1
			c0,0,0-0.3-0.1-0.7c0-0.4-0.1-1-0.2-1.7c-0.1-0.7-0.1-1.5-0.2-2.4c-0.1-0.9-0.1-2-0.2-3.2c0-1.2-0.1-2.4-0.1-3.6v-1.7
			c0-0.6-0.3-0.9-0.9-0.9c-0.3,0-0.6,0.1-0.8,0.2c-0.1,0-0.5,0.5-1.1,1.3c-0.6,0.8-1.2,1.2-1.6,1.2h-0.2c-0.1,0-0.5-0.2-1.3-0.7
			c-0.8-0.5-1.6-1-2.6-1.4c-1-0.5-2.3-0.9-3.9-1.3c-1.6-0.4-3.3-0.6-5-0.6c-5.9,0-10.8,2.1-15,6.4c-4.1,4.2-6.2,9.5-6.2,15.8
			c0,6.6,2.2,12.2,6.6,16.8C294.8,5.7,299.9,8,305.9,8z M328.1-15.2c0,0.7,0.3,1.2,0.8,1.7c0.5,0.4,1.1,0.6,1.8,0.6
			c0.5,0,1-0.2,1.4-0.7c1.4-2.8,3.2-4.2,5.4-4.2c1.4,0,2.7,0.6,3.7,1.7c1,1.2,1.5,2.9,1.5,5v2.3c0,0.5-0.2,0.8-0.5,0.9l-0.9,0.1
			c-0.6,0-1.3,0.1-2.1,0.3c-0.9,0.1-1.8,0.3-2.7,0.5c-1,0.2-1.9,0.5-2.9,0.9c-1,0.4-1.8,0.8-2.4,1.3c-1.8,1.4-2.6,3.2-2.6,5.6v0.1
			c0,2,0.7,3.6,2,5c1.3,1.3,3.1,2,5.2,2c2,0,4-0.6,5.8-1.7c0.4-0.3,0.8-0.5,1-0.8c0.2-0.2,0.4-0.4,0.4-0.5c0-0.1,0.1-0.1,0.2-0.1
			c0,0,0.1,0,0.1,0c0,0,0,0,0.1,0l0.2,0.2c0.2,0.2,0.4,0.4,0.6,0.7c0.3,0.2,0.6,0.5,0.9,0.8c0.3,0.3,0.7,0.5,1.2,0.6
			c0.5,0.2,1,0.2,1.5,0.2c1.4,0,2.6-0.6,3.5-1.8c0.9-1.2,1.4-2.2,1.4-3.2c0-0.5-0.2-0.8-0.6-0.8c-0.2,0-0.5,0.2-0.6,0.5
			c-0.2,0.4-0.4,0.7-0.8,1.1c-0.3,0.3-0.8,0.5-1.4,0.5c-0.3,0-0.6,0-0.9-0.2c-0.3-0.1-0.6-0.4-0.9-0.8c-0.3-0.5-0.4-1-0.4-1.8v-12.4
			c0-0.5,0-1.3-0.1-2.3c-0.2-1.4-0.6-2.6-1.3-3.7c-0.7-1-1.6-1.7-2.6-2.1c-1-0.4-2-0.7-2.8-0.9c-0.8-0.2-1.6-0.2-2.4-0.2
			c-2.5,0-4.7,0.6-6.7,1.9C329.1-17.7,328.1-16.4,328.1-15.2z M337,4.3c-1.2,0-2.1-0.3-2.7-0.8C333.4,2.8,333,1.6,333,0
			c0-1.5,0.5-2.6,1.5-3.4c0.9-0.9,2.1-1.4,3.7-1.8c1.5-0.3,2.8-0.5,3.8-0.5c0.3,0,0.5,0.1,0.5,0.3c0.1,0.2,0.1,0.7,0.1,1.5v2.6v1.5
			c0,0.6-0.1,1.1-0.4,1.4c-0.2,0.2-0.5,0.5-0.8,0.9c-0.3,0.3-0.9,0.7-1.8,1.1S337.9,4.3,337,4.3z M358.7,0.1v5.6c0,1.7,0,3,0,4
			c0,1,0,1.6,0,1.8c0,1-0.1,1.9-0.4,2.6c-0.3,0.7-0.6,1.2-1,1.5c-0.4,0.3-0.8,0.5-1.1,0.7c-0.3,0.1-0.7,0.2-1,0.2
			c-0.2,0-0.5,0-0.9-0.1c-0.4-0.1-0.7-0.1-1-0.1c-0.9,0-1.5,0.3-2,0.9c-0.5,0.6-0.7,1.2-0.7,1.8c0,0.6,0.2,1.1,0.7,1.5
			c0.5,0.4,1,0.6,1.7,0.6c1.1,0,2.4-0.6,3.9-1.8c1.5-1.2,2.7-2.3,3.4-3.2c0.8-0.9,1.5-1.8,2-2.6c0.6-0.9,0.9-1.8,0.9-2.8
			c0-0.4,0-1.4-0.1-3c0-1.6-0.1-3.9-0.1-6.7c0-2.8-0.1-5.9-0.1-9.3c0-2.1,0-4.1,0-5.9c0-1.8,0-3.2,0.1-4.2c0-1,0-1.6,0-1.8
			c0-0.7-0.2-1.1-0.6-1.1c-0.1,0-0.3,0-0.4,0.1c-4,1.7-6.3,2.7-6.8,2.9c-0.5,0.3-0.8,0.5-0.8,0.8c0,0.3,0.2,0.6,0.5,0.7
			c0.3,0.2,0.7,0.4,1.1,0.7c0.4,0.2,0.7,0.4,0.9,0.5c0.2,0.1,0.4,0.3,0.6,0.4c0.2,0.1,0.4,0.2,0.5,0.3l0.3,0.3
			c0.1,0.1,0.2,0.2,0.2,0.3c0,0.1,0,0.2,0.1,0.3c0,0.1,0,0.3,0,0.5c0,0.2,0,0.9,0,2.1c0,1.2,0,2.8-0.1,4.7
			C358.7-4.4,358.7-2.2,358.7,0.1z M359.4-31.5c0,0.8,0.3,1.5,0.9,2.1c0.6,0.5,1.3,0.8,2.1,0.8s1.5-0.3,2.1-0.9
			c0.6-0.6,0.9-1.3,0.9-2.1s-0.3-1.5-0.9-2.1c-0.6-0.6-1.3-0.8-2.1-0.8c-0.9,0-1.6,0.3-2.2,0.9C359.7-33,359.4-32.3,359.4-31.5z
			 M369.2-15.2c0,0.7,0.3,1.2,0.8,1.7c0.5,0.4,1.1,0.6,1.8,0.6c0.5,0,1-0.2,1.3-0.7c1.4-2.8,3.2-4.2,5.4-4.2c1.4,0,2.7,0.6,3.7,1.7
			c1,1.2,1.5,2.9,1.5,5v2.3c0,0.5-0.2,0.8-0.5,0.9l-0.9,0.1c-0.6,0-1.3,0.1-2.1,0.3c-0.9,0.1-1.8,0.3-2.7,0.5
			c-1,0.2-1.9,0.5-2.9,0.9c-1,0.4-1.8,0.8-2.4,1.3c-1.8,1.4-2.6,3.2-2.6,5.6v0.1c0,2,0.7,3.6,2,5c1.3,1.3,3.1,2,5.2,2
			c2,0,4-0.6,5.8-1.7c0.4-0.3,0.8-0.5,1-0.8c0.2-0.2,0.4-0.4,0.4-0.5c0-0.1,0.1-0.1,0.2-0.1c0,0,0.1,0,0.1,0c0,0,0,0,0.1,0l0.2,0.2
			c0.2,0.2,0.4,0.4,0.7,0.7c0.3,0.2,0.6,0.5,0.9,0.8c0.3,0.3,0.7,0.5,1.2,0.6c0.5,0.2,1,0.2,1.5,0.2c1.4,0,2.6-0.6,3.5-1.8
			s1.4-2.2,1.4-3.2c0-0.5-0.2-0.8-0.6-0.8c-0.2,0-0.5,0.2-0.6,0.5c-0.2,0.4-0.4,0.7-0.8,1.1c-0.3,0.3-0.8,0.5-1.4,0.5
			c-0.3,0-0.6,0-0.9-0.2c-0.3-0.1-0.6-0.4-0.9-0.8c-0.3-0.5-0.4-1-0.4-1.8v-12.4c0-0.5,0-1.3-0.1-2.3c-0.2-1.4-0.6-2.6-1.3-3.7
			c-0.7-1-1.6-1.7-2.6-2.1c-1-0.4-2-0.7-2.8-0.9c-0.8-0.2-1.6-0.2-2.4-0.2c-2.5,0-4.7,0.6-6.7,1.9C370.2-17.7,369.2-16.4,369.2-15.2
			z M378.2,4.3c-1.2,0-2.1-0.3-2.7-0.8c-0.9-0.7-1.3-1.9-1.3-3.4c0-1.5,0.5-2.6,1.5-3.4c0.9-0.9,2.1-1.4,3.7-1.8
			c1.5-0.3,2.8-0.5,3.9-0.5c0.3,0,0.5,0.1,0.5,0.3c0.1,0.2,0.1,0.7,0.1,1.5v2.6v1.5c0,0.6-0.1,1.1-0.4,1.4c-0.2,0.2-0.5,0.5-0.8,0.9
			c-0.3,0.3-0.9,0.7-1.8,1.1S379.1,4.3,378.2,4.3z M412.4,6c0,0.6,0.2,0.9,0.7,0.9c0,0,0.2,0,0.4,0c0.2,0,0.5,0,0.8-0.1
			c0.4,0,0.7-0.1,1.2-0.1c0.4,0,1-0.1,1.5-0.1c0.6,0,1.2,0,1.7,0s1.2,0,1.8,0c0.6,0,1.1,0,1.6,0.1c0.4,0,0.8,0.1,1.2,0.1
			c0.4,0,0.7,0.1,0.9,0.1c0.2,0,0.3,0,0.4,0c0.5,0,0.8-0.5,0.8-1.4c0-0.7-0.4-1.1-1-1.2c-0.7-0.1-1.1-0.2-1.4-0.2
			c-0.2-0.1-0.5-0.2-0.7-0.5C422,3.3,422,2.9,422,2.3c-0.1-5.6-0.3-9.5-0.5-11.4c-0.2-1.9-0.7-3.7-1.3-5.3c-1.7-3.8-4.5-5.7-8.4-5.7
			c-1.3,0-2.5,0.2-3.7,0.6c-1.2,0.4-2.1,0.8-2.7,1.2c-0.7,0.4-1,0.6-1.1,0.6c-0.2,0-0.3-0.1-0.3-0.4l0.1-19.4c0-0.8-0.3-1.2-1-1.2
			H403c-0.2,0-2.6,1.3-7.2,4c-0.7,0.4-1.1,0.8-1.1,1.2c0,0.6,0.7,1,2.2,1.4c1.5,0.3,2.2,0.8,2.3,1.3c0.2,1,0.2,6.1,0.2,15.4v0.2
			c0,5.2-0.1,10.9-0.3,17.3c0,0.5-0.1,0.8-0.1,1c0,0.2-0.2,0.4-0.4,0.7c-0.2,0.3-0.6,0.4-1,0.5c-1,0.2-1.7,0.4-1.9,0.5
			c-0.2,0.1-0.4,0.4-0.4,0.9c0,0.8,0.2,1.2,0.7,1.2c0,0,0.2,0,0.4,0c0.2,0,0.5,0,0.9-0.1c0.4,0,0.8-0.1,1.2-0.1c0.5,0,1-0.1,1.6-0.1
			c0.6,0,1.2,0,1.8,0c0.6,0,1.2,0,1.8,0c0.6,0,1.1,0,1.6,0.1c0.5,0,0.9,0.1,1.2,0.1c0.4,0,0.7,0.1,0.9,0.1c0.2,0,0.3,0,0.4,0
			c0.5,0,0.7-0.4,0.7-1.3c0-0.5-0.2-0.8-0.7-1c-0.5-0.2-1-0.3-1.5-0.3c-0.6,0-1.1-0.1-1.6-0.3s-0.8-0.7-1-1.3
			c-0.1-0.3-0.1-5.5-0.1-15.5c0-0.4,0-0.7,0.1-0.9c0.2-0.7,0.8-1.4,1.9-2.1c1.1-0.7,2.3-1,3.6-1c1.9,0,3.6,0.7,5.1,2.3
			c1,1.1,1.7,2.5,2.2,4.3c0.5,1.8,0.8,4.8,0.8,8.9c0,2.4-0.1,3.9-0.2,4.5c-0.1,0.6-0.5,0.9-1.1,1c-0.3,0-0.7,0.1-1.1,0.1
			c-0.4,0-0.7,0.1-0.9,0.1c-0.2,0-0.4,0.1-0.6,0.1c-0.2,0-0.4,0.1-0.5,0.1c-0.1,0-0.2,0.1-0.3,0.2c-0.1,0.1-0.2,0.2-0.2,0.3
			c0,0.1,0,0.3,0,0.5V6z M432.1,20.5c1.4,0,3-1.3,4.7-3.9c3.4-5.2,7.2-12.8,11.2-22.7c1.1-2.8,2.2-5.6,3.2-8.4
			c0.5-1.3,0.8-2.1,1-2.3c0.1-0.2,0.4-0.4,0.8-0.4c1.1-0.1,1.8-0.2,2.1-0.3c0.2-0.1,0.4-0.4,0.4-0.8c0-0.9-0.2-1.3-0.7-1.3
			c-0.1,0-0.3,0-0.7,0c-0.4,0-1,0.1-1.7,0.1c-0.7,0-1.5,0.1-2.4,0.1h-0.1c-0.9,0-1.7,0-2.4-0.1c-0.8,0-1.3-0.1-1.8-0.1
			c-0.4,0-0.7,0-0.7,0c-0.8,0-1.2,0.4-1.2,1.1c0,0.7,0.4,1.2,1.2,1.2c0.2,0,0.6,0.1,0.9,0.1c0.4,0,0.6,0,0.8,0c0.2,0,0.4,0,0.5,0.1
			c0.2,0,0.4,0.1,0.4,0.2c0.1,0.1,0.2,0.2,0.2,0.4c0.1,0.2,0.1,0.4,0.1,0.6c0,1.6-1.7,6.6-5.2,14.8c0,0-0.1,0.1-0.1,0.2
			c0,0.1-0.1,0.2-0.2,0.3c-0.1,0.1-0.2,0.1-0.3,0.1c-0.3,0-0.4-0.1-0.4-0.4c-1.3-2.5-2.5-4.9-3.7-7.4c-1.1-2.5-1.9-4.4-2.5-5.7
			c-0.5-1.4-0.8-2.2-0.8-2.4c0-0.5,0.3-0.8,1-0.9c0.1,0,0.3,0,0.5,0c0.2,0,0.4,0,0.5-0.1c0.1,0,0.2,0,0.4-0.1c0.2,0,0.3,0,0.3-0.1
			c0,0,0.1,0,0.2-0.1c0.1,0,0.2-0.1,0.2-0.1c0-0.1,0.1-0.1,0.1-0.2c0.1-0.1,0.1-0.1,0.1-0.2c0-0.1,0-0.2,0-0.3c0-0.1,0-0.2,0-0.4
			c0-0.7-0.3-1-0.9-1c-0.1,0-0.3,0-0.8,0c-0.4,0-1,0.1-1.8,0.1c-0.8,0-1.6,0.1-2.4,0.1c-0.9,0-1.7,0-2.4-0.1c-0.8,0-1.3-0.1-1.8-0.1
			c-0.4,0-0.7,0-0.7,0c-0.6,0-0.9,0.3-0.9,1c0,0.6,0.1,1,0.4,1.1c0.2,0.1,0.6,0.2,1,0.3c0.4,0.1,0.8,0.3,1,0.6
			c0.4,0.5,1.5,2.7,3.4,6.5c4.7,9.3,7,14.5,7,15.6c0,0.8-0.5,2-1.4,3.6c-1,1.6-1.9,2.8-2.8,3.6c-0.5,0.5-1.3,1.1-2.4,1.7
			c-1.1,0.7-1.8,1.3-2.4,1.8c-0.5,0.5-0.8,1.2-0.8,1.9c0,0.6,0.2,1.2,0.7,1.6C430.8,20.3,431.4,20.5,432.1,20.5z M457.6-15.2
			c0,0.7,0.3,1.2,0.8,1.7s1.1,0.6,1.8,0.6c0.5,0,1-0.2,1.4-0.7c1.4-2.8,3.2-4.2,5.4-4.2c1.4,0,2.7,0.6,3.7,1.7c1,1.2,1.5,2.9,1.5,5
			v2.3c0,0.5-0.2,0.8-0.5,0.9l-0.9,0.1c-0.6,0-1.3,0.1-2.1,0.3c-0.9,0.1-1.8,0.3-2.7,0.5c-1,0.2-1.9,0.5-2.9,0.9
			c-1,0.4-1.8,0.8-2.4,1.3c-1.8,1.4-2.6,3.2-2.6,5.6v0.1c0,2,0.7,3.6,2,5c1.3,1.3,3.1,2,5.2,2c2,0,4-0.6,5.8-1.7
			c0.5-0.3,0.8-0.5,1-0.8c0.3-0.2,0.4-0.4,0.4-0.5c0-0.1,0.1-0.1,0.2-0.1c0,0,0.1,0,0.1,0c0,0,0,0,0.1,0l0.2,0.2
			c0.2,0.2,0.4,0.4,0.7,0.7c0.3,0.2,0.6,0.5,0.9,0.8s0.7,0.5,1.2,0.6c0.5,0.2,1,0.2,1.5,0.2c1.4,0,2.6-0.6,3.5-1.8
			c0.9-1.2,1.4-2.2,1.4-3.2c0-0.5-0.2-0.8-0.6-0.8c-0.2,0-0.5,0.2-0.6,0.5c-0.2,0.4-0.4,0.7-0.8,1.1c-0.3,0.3-0.8,0.5-1.3,0.5
			c-0.3,0-0.6,0-0.9-0.2c-0.3-0.1-0.6-0.4-0.9-0.8c-0.3-0.5-0.4-1-0.4-1.8v-12.4c0-0.5,0-1.3-0.1-2.3c-0.2-1.4-0.6-2.6-1.3-3.7
			c-0.7-1-1.6-1.7-2.6-2.1c-1-0.4-2-0.7-2.8-0.9c-0.8-0.2-1.6-0.2-2.4-0.2c-2.5,0-4.7,0.6-6.7,1.9C458.6-17.7,457.6-16.4,457.6-15.2
			z M466.5,4.3c-1.2,0-2.1-0.3-2.7-0.8c-0.9-0.7-1.3-1.9-1.3-3.4c0-1.5,0.5-2.6,1.5-3.4c0.9-0.9,2.1-1.4,3.7-1.8
			c1.5-0.3,2.8-0.5,3.8-0.5c0.3,0,0.5,0.1,0.5,0.3c0.1,0.2,0.1,0.7,0.1,1.5v2.6v1.5c0,0.6-0.1,1.1-0.4,1.4c-0.2,0.2-0.5,0.5-0.8,0.9
			s-0.9,0.7-1.8,1.1C468.3,4.1,467.4,4.3,466.5,4.3z M491.2-17.2v-0.1c0-0.1,0.1-0.2,0.1-0.2V-20c0-0.6-0.2-0.9-0.7-0.9
			c-0.2,0-0.4,0.1-0.6,0.2c-0.8,0.4-1.7,0.9-2.9,1.5c-1.5,0.8-2.4,1.2-2.6,1.4c-0.3,0.2-0.4,0.4-0.4,0.6v0.1c0,0.2,0.1,0.4,0.4,0.6
			c1.5,1.1,2.3,1.8,2.5,2.1c0.2,0.3,0.3,0.8,0.3,1.5v15c0,0.7-0.1,1.1-0.3,1.5c-0.2,0.3-0.6,0.6-1.4,0.7c-1.1,0.2-1.8,0.3-2.1,0.5
			c-0.3,0.1-0.4,0.5-0.4,1.1c0,0.7,0.4,1.1,1.1,1.1c0,0,0.2,0,0.4,0c0.2,0,0.5,0,0.8-0.1c0.3,0,0.7-0.1,1.1-0.1
			c0.4,0,0.9-0.1,1.5-0.1c0.6,0,1.1,0,1.7,0c0.6,0,1.2,0,1.8,0c0.6,0,1.1,0.1,1.6,0.1c0.4,0.1,0.9,0.1,1.2,0.2
			c0.4,0,0.7,0.1,0.9,0.1c0.2,0,0.4,0,0.4,0c0.5,0,0.8-0.4,0.8-1.1c0-0.5-0.1-0.8-0.4-1c-0.2-0.2-1.2-0.4-3-0.7
			c-0.9-0.1-1.4-0.7-1.4-1.8V2.1v-14.9c0-0.2,0-0.5,0.1-0.9c0.2-0.7,0.9-1.6,2.1-2.6c1.3-1,2.7-1.5,4.3-1.5c1.1,0,2.3,0.3,3.5,0.8
			c1.2,0.6,2.1,1.5,2.8,2.9c0.6,1.5,0.9,3.7,0.9,6.8v9.8c0,0.5-0.1,0.9-0.2,1.1c-0.1,0.2-0.4,0.3-0.8,0.4c-0.2,0-0.5,0.1-0.9,0.2
			c-1.1,0.2-1.7,0.3-2,0.4c-0.2,0.1-0.4,0.4-0.4,0.9c0,0.8,0.3,1.2,0.9,1.2h0.3c0.2,0,0.5-0.1,0.8-0.1c0.3,0,0.7-0.1,1.1-0.1
			c0.4,0,0.8-0.1,1.4-0.1c0.5,0,1.1,0,1.6,0c0.9,0,1.8,0,2.5,0.1c0.8,0.1,1.4,0.1,1.9,0.2c0.5,0.1,0.7,0.1,0.9,0.1
			c0.7,0,1-0.4,1-1.2c0-0.7-0.3-1.1-0.9-1.2c-0.2,0-0.4-0.1-0.8-0.1c-0.4,0-0.6-0.1-0.7-0.1c-0.1,0-0.3,0-0.5-0.1
			c-0.2-0.1-0.4-0.1-0.4-0.2c-0.1,0-0.2-0.1-0.3-0.2c-0.1-0.1-0.2-0.2-0.2-0.3c0-0.1,0-0.2-0.1-0.4c0-0.2-0.1-0.4-0.1-0.6V2.4
			c0-2.5,0-4.6,0-6.3c0-1.6,0-2.8,0-3.4v-1.2c0-1.4,0-2.5-0.1-3.2c-0.2-1.8-0.6-3.4-1.2-4.7c-0.7-1.3-1.5-2.2-2.4-2.8
			c-1-0.6-1.9-1-2.7-1.2c-0.8-0.2-1.7-0.3-2.6-0.3h-0.1c-1,0-2,0.1-3,0.4c-0.9,0.3-1.7,0.6-2.4,1c-0.7,0.4-1.2,0.7-1.7,1.1
			c-0.5,0.4-0.9,0.7-1.1,0.9c-0.3,0.2-0.4,0.4-0.5,0.4h-0.1C491.2-17,491.2-17,491.2-17.2z M515.5-15.2c0,0.7,0.3,1.2,0.8,1.7
			s1.1,0.6,1.8,0.6c0.5,0,1-0.2,1.4-0.7c1.4-2.8,3.2-4.2,5.4-4.2c1.4,0,2.7,0.6,3.7,1.7c1,1.2,1.5,2.9,1.5,5v2.3
			c0,0.5-0.2,0.8-0.5,0.9l-0.9,0.1c-0.6,0-1.3,0.1-2.1,0.3c-0.9,0.1-1.8,0.3-2.7,0.5c-1,0.2-1.9,0.5-2.9,0.9c-1,0.4-1.8,0.8-2.4,1.3
			c-1.8,1.4-2.6,3.2-2.6,5.6v0.1c0,2,0.7,3.6,2,5c1.3,1.3,3.1,2,5.2,2c2.1,0,4-0.6,5.8-1.7c0.5-0.3,0.8-0.5,1.1-0.8
			c0.2-0.2,0.4-0.4,0.4-0.5c0-0.1,0.1-0.1,0.2-0.1c0,0,0.1,0,0.1,0c0,0,0,0,0.1,0l0.2,0.2c0.2,0.2,0.4,0.4,0.6,0.7
			c0.3,0.2,0.6,0.5,0.9,0.8c0.3,0.3,0.7,0.5,1.2,0.6c0.5,0.2,1,0.2,1.5,0.2c1.4,0,2.6-0.6,3.5-1.8c0.9-1.2,1.4-2.2,1.4-3.2
			c0-0.5-0.2-0.8-0.5-0.8c-0.2,0-0.5,0.2-0.7,0.5c-0.2,0.4-0.4,0.7-0.8,1.1c-0.3,0.3-0.8,0.5-1.4,0.5c-0.3,0-0.6,0-0.9-0.2
			c-0.3-0.1-0.6-0.4-0.9-0.8c-0.3-0.5-0.4-1-0.4-1.8v-12.4c0-0.5,0-1.3-0.1-2.3c-0.2-1.4-0.6-2.6-1.3-3.7c-0.7-1-1.6-1.7-2.6-2.1
			c-1.1-0.4-2-0.7-2.8-0.9c-0.8-0.2-1.6-0.2-2.4-0.2c-2.5,0-4.7,0.6-6.7,1.9C516.5-17.7,515.5-16.4,515.5-15.2z M524.4,4.3
			c-1.2,0-2.1-0.3-2.7-0.8c-0.9-0.7-1.3-1.9-1.3-3.4c0-1.5,0.5-2.6,1.5-3.4c0.9-0.9,2.1-1.4,3.7-1.8c1.5-0.3,2.8-0.5,3.8-0.5
			c0.3,0,0.5,0.1,0.5,0.3c0.1,0.2,0.1,0.7,0.1,1.5v2.6v1.5c0,0.6-0.1,1.1-0.4,1.4c-0.2,0.2-0.5,0.5-0.8,0.9
			c-0.3,0.3-0.9,0.7-1.8,1.1C526.2,4.1,525.3,4.3,524.4,4.3z"/>
	</g>
</g>
</svg>
