<?xml version="1.0" encoding="utf-8"?>
<!-- Generator: Adobe Illustrator 21.0.0, SVG Export Plug-In . SVG Version: 6.00 Build 0)  -->
<svg version="1.1" id="Layer_1" xmlns="http://www.w3.org/2000/svg" xmlns:xlink="http://www.w3.org/1999/xlink" x="0px" y="0px"
	 viewBox="0 0 256 256" style="enable-background:new 0 0 256 256;" xml:space="preserve">
<style type="text/css">
	.st0{fill:none;stroke:#726318;stroke-miterlimit:10;}
	.st1{fill:none;stroke:#726318;}
	.st2{fill:none;stroke:#726318;stroke-linecap:round;stroke-linejoin:round;}
</style>
<circle class="st0" cx="127.8" cy="128.3" r="120.8"/>
<g id="SvgjsG9647" transform="translate(179.1863688214456, -8.821105167548035) scale(6.491735545692108)">
	<path class="st1" d="M-18.3,14.1c0.9-2.7,10.2-4.1,11.3-2c0,0,1,4.5,1.1,5.8c0.1,1.9-0.3,6.8-4.3,7.6c-4.3,0.8-6.7-4.9-6.7-4.9
		S-18.6,15-18.3,14.1L-18.3,14.1z"/>
	<path class="st2" d="M-15.3,16.8c0,0,1.7-0.1,1.9-1.2 M-8.7,15.7c0,0-1.2,0.7-2.2-0.5 M-13.2,21.2c0,0,2.3-2.4,4.1-0.7 M-5.5,15.3
		c5.3,0.2,8,1.9,8.1,3.5c0,0-0.9,4.5-1.3,5.8c-0.7,1.8-3,6.1-7,5.2c-1.9-0.4-3-1.9-3.5-3.4 M-4.8,20.4c0,0,0.1-0.9-1.1-0.7
		 M-2.4,20.7c0,0,1-0.9,2.3,0.1 M-2.7,25.7c0,0-3.2,0.8-3.9-1.6"/>
</g>
</svg>
