<?xml version="1.0" encoding="utf-8"?>
<!-- Generator: Adobe Illustrator 21.0.0, SVG Export Plug-In . SVG Version: 6.00 Build 0)  -->
<svg version="1.1" id="Layer_1" xmlns="http://www.w3.org/2000/svg" xmlns:xlink="http://www.w3.org/1999/xlink" x="0px" y="0px"
	 viewBox="0 0 248 81" style="enable-background:new 0 0 248 81;" xml:space="preserve">
<style type="text/css">
	.st0{fill:none;stroke:#726318;stroke-width:2;}
	.st1{fill:none;stroke:#726318;stroke-width:2;stroke-linecap:round;stroke-linejoin:round;}
	.st2{fill:#726318;}
	.st3{fill:#FFFFFF;}
	.st4{fill:#FCFCFC;}
	.st5{fill:#FCFCFA;}
</style>
<g id="SvgjsG5585" transform="scale(0.48031838247066627)">
	<g id="SvgjsG5586" transform="translate(-0.7103411078762325, -7.925305486770629) scale(5.832487694196558)">
		<path class="st0" d="M1.6,6.8C2.9,3,15.9,1,17.5,4.1c0,0,1.4,6.3,1.5,8.1c0.2,2.7-0.4,9.5-6.1,10.6C6.8,24,3.4,16,3.4,16
			S1.2,8.1,1.6,6.8L1.6,6.8z"/>
		<path class="st1" d="M5.9,10.7c0,0,2.3-0.1,2.7-1.7 M15.1,9.1c0,0-1.6,1-3.1-0.7 M8.8,16.9c0,0,3.3-3.4,5.8-0.9 M19.7,8.5
			c7.4,0.3,11.2,2.7,11.3,4.9c0,0-1.3,6.3-1.9,8.1c-0.9,2.5-4.2,8.5-9.8,7.3c-2.7-0.6-4.2-2.7-5-4.7 M20.6,15.7c0,0,0.1-1.3-1.5-0.9
			 M23.9,16.1c0,0,1.4-1.3,3.2,0.1 M23.5,23.1c0,0-4.6,1.1-5.4-2.3"/>
	</g>
	<g id="SvgjsG5587" transform="translate(161.7457142857143, 75.18107547497442) scale(1)">
		<path class="st2" d="M61,8.7c5.8,0,10.8-1.9,15.1-5.7c0.4-0.4,0.7-0.6,1-0.6c0.2,0,0.5,0.2,1.1,0.8S79,4,79.3,4c0.7,0,1-0.5,1-1.4
			V-9.9c0-0.4,0-0.6,0.1-0.8c0.1-0.6,0.8-1.1,2.1-1.5c1.2-0.4,1.8-1.1,1.8-1.9c0-0.4-0.2-0.7-0.5-1.1c-0.3-0.3-0.8-0.5-1.4-0.5
			c-0.2,0-0.5,0-1.2,0.1c-0.7,0-1.6,0.1-2.8,0.1c-1.2,0.1-2.5,0.1-3.9,0.1h-0.2c-1.3,0-2.6,0-3.7-0.1c-1.1,0-2-0.1-2.7-0.1
			c-0.6-0.1-1-0.1-1.2-0.1c-1.1,0-1.7,0.6-1.7,1.7c0,1.1,0.7,1.6,2.1,1.7c0.5,0,1.2,0.1,2.1,0.1c2,0.2,3.3,0.4,3.9,0.7
			c0.6,0.3,0.9,0.9,0.9,1.9v8.3c0,0.6-0.1,1-0.2,1.3c-0.4,0.9-1.9,1.9-4.3,3c-2.4,1.1-5.1,1.7-7.9,1.7c-2.1,0-4.2-0.4-6.3-1.2
			c-2.1-0.8-4.1-2.1-6.2-3.9c-2-1.8-3.7-4.4-4.9-7.8c-1.2-3.4-1.9-7.4-1.9-12c0-3.8,0.5-7.1,1.5-10.1c1-2.9,2.3-5.1,4-6.7
			s3.4-2.8,5.3-3.5c1.9-0.8,3.8-1.1,5.7-1.1c3.1,0,6.1,0.8,8.9,2.4c2.8,1.6,5.2,3.6,7.1,6.2c1,1.4,1.7,2.7,2.1,4.1
			c0.4,1.3,0.6,2.2,0.8,2.7c0.2,0.5,0.5,0.7,1.2,0.7c1.4,0,2.1-0.4,2.1-1.2c0,0,0-0.3-0.1-0.8c-0.1-0.5-0.1-1.1-0.2-2
			c-0.1-0.8-0.2-1.8-0.3-2.8c-0.1-1.1-0.2-2.3-0.2-3.7c-0.1-1.4-0.1-2.9-0.1-4.3v-2c0-0.7-0.3-1-1-1c-0.4,0-0.7,0.1-0.9,0.2
			c-0.1,0.1-0.6,0.5-1.3,1.5c-0.8,0.9-1.4,1.4-1.9,1.4h-0.3c-0.1,0-0.6-0.3-1.5-0.8c-0.9-0.5-1.9-1.1-3-1.7
			c-1.1-0.6-2.7-1.1-4.6-1.6c-1.9-0.5-3.9-0.7-5.9-0.7c-6.9,0-12.7,2.5-17.5,7.5c-4.8,5-7.2,11.1-7.2,18.5c0,7.7,2.6,14.3,7.7,19.7
			C48,6,54,8.7,61,8.7z M87-18.5c0,0.8,0.3,1.5,0.9,1.9c0.6,0.5,1.3,0.7,2.1,0.7c0.6,0,1.1-0.3,1.6-0.9c1.6-3.3,3.7-4.9,6.3-4.9
			c1.7,0,3.1,0.7,4.3,1.9c1.1,1.4,1.7,3.4,1.7,5.9v2.7c0,0.6-0.2,0.9-0.6,1l-1,0.1c-0.7,0-1.5,0.2-2.5,0.3c-1,0.2-2.1,0.4-3.2,0.6
			c-1.1,0.2-2.3,0.6-3.4,1.1c-1.2,0.5-2.1,1-2.8,1.5c-2.1,1.6-3.1,3.8-3.1,6.6v0.1c0,2.3,0.8,4.3,2.3,5.8c1.6,1.6,3.6,2.4,6.1,2.4
			c2.4,0,4.7-0.7,6.8-2c0.5-0.3,0.9-0.6,1.2-0.9c0.3-0.3,0.5-0.5,0.5-0.6c0.1-0.1,0.1-0.1,0.2-0.1c0.1,0,0.1,0,0.1,0c0,0,0,0,0.1,0
			l0.2,0.3c0.2,0.2,0.5,0.5,0.8,0.8c0.3,0.3,0.7,0.6,1,0.9c0.4,0.3,0.9,0.6,1.4,0.8s1.2,0.3,1.8,0.3c1.7,0,3.1-0.7,4.1-2.1
			s1.6-2.6,1.6-3.8c0-0.6-0.2-0.9-0.7-0.9c-0.3,0-0.5,0.2-0.8,0.6c-0.2,0.4-0.5,0.8-0.9,1.2c-0.4,0.4-0.9,0.6-1.6,0.6
			c-0.3,0-0.7-0.1-1-0.2c-0.3-0.1-0.7-0.4-1-1c-0.3-0.5-0.5-1.2-0.5-2.1v-14.5c0-0.6,0-1.5-0.1-2.7c-0.2-1.7-0.7-3.1-1.5-4.3
			c-0.8-1.2-1.9-2-3.1-2.5c-1.2-0.5-2.3-0.8-3.3-1c-1-0.2-1.9-0.3-2.8-0.3c-2.9,0-5.5,0.7-7.8,2.2S87-19.9,87-18.5z M97.5,4.3
			C96,4.3,95,4,94.3,3.4c-1-0.9-1.5-2.2-1.5-4c0-1.7,0.6-3.1,1.7-4c1.1-1,2.5-1.7,4.3-2.1c1.8-0.4,3.3-0.6,4.5-0.6
			c0.3,0,0.5,0.1,0.6,0.4c0.1,0.3,0.1,0.8,0.1,1.8v3v1.8c0,0.7-0.1,1.3-0.4,1.7c-0.2,0.3-0.6,0.6-0.9,1c-0.4,0.4-1.1,0.8-2.1,1.3
			C99.6,4.1,98.6,4.3,97.5,4.3z M132.8,5.9c0-0.9-0.4-1.4-1.2-1.5c-0.2-0.1-0.5-0.1-0.9-0.2c-0.4,0-0.7-0.1-0.8-0.1
			c-0.1,0-0.3-0.1-0.6-0.1c-0.3-0.1-0.4-0.1-0.5-0.2c-0.1-0.1-0.2-0.1-0.4-0.2c-0.2-0.1-0.3-0.2-0.3-0.3c-0.1-0.1-0.1-0.2-0.2-0.4
			c0-0.2-0.1-0.4-0.1-0.5c0-0.2,0-0.4,0-0.7V-45c0-0.9-0.3-1.4-1-1.4c-0.3,0-0.6,0.1-0.9,0.3c-2,1.1-4.1,2.1-6.3,3.2
			c-1.8,1-2.7,1.6-2.7,1.8v0.1c0,0.2,0,0.3,0.1,0.4c0.1,0.1,0.2,0.3,0.5,0.4c0.2,0.2,0.5,0.3,0.7,0.5c0.2,0.1,0.6,0.4,1.2,0.7
			c0.5,0.3,1.1,0.6,1.5,0.9c0.1,0,0.2,0.1,0.5,0.2c0.2,0.1,0.4,0.2,0.4,0.3c0.1,0,0.2,0.1,0.3,0.2c0.1,0.1,0.2,0.1,0.2,0.2
			c0,0.1,0.1,0.2,0.1,0.2c0.1,0.1,0.1,0.2,0.1,0.3c0,0.1,0,0.2,0,0.4V1.3c0,0.9-0.1,1.5-0.4,2c-0.3,0.5-0.8,0.7-1.7,0.8
			c-1.4,0.1-2.2,0.3-2.6,0.5c-0.3,0.2-0.5,0.6-0.5,1.2V6c0,0.9,0.4,1.3,1.1,1.3c0.1,0,0.2,0,0.4,0c0.2,0,0.6-0.1,1-0.1
			c0.4-0.1,0.9-0.1,1.4-0.1c0.5,0,1.1-0.1,1.8-0.1c0.7,0,1.3,0,2,0c0.7,0,1.4,0,2.1,0c0.7,0,1.3,0.1,1.9,0.1c0.5,0,1,0.1,1.4,0.1
			c0.4,0.1,0.8,0.1,1.1,0.1c0.3,0,0.4,0,0.5,0C132.6,7.4,132.8,6.9,132.8,5.9z M135.3-8.3c0,3,0.4,5.6,1.3,7.9
			c0.9,2.3,2.1,4,3.5,5.2c1.5,1.2,3,2.1,4.5,2.7s3.2,0.9,4.8,0.9c2.5,0,5-0.6,7.3-1.8c2.3-1.2,4.2-2.8,5.8-4.8
			c0.4-0.5,0.6-0.9,0.6-1.1c0-0.7-0.4-1.1-1.2-1.1c-0.4,0-1,0.3-1.7,1c-2.5,2.4-5.4,3.6-8.8,3.6c-1.7,0-3.3-0.4-4.7-1.1
			s-2.5-1.5-3.2-2.4c-0.8-0.9-1.4-2-1.9-3.1c-0.5-1.1-0.8-2-1-2.7c-0.2-0.7-0.2-1.1-0.2-1.4c0-0.2,0.1-0.3,0.3-0.4
			c0.2-0.2,5.4-1.9,15.4-5.4c0.2,0,0.7-0.2,1.4-0.4c0.8-0.2,1.3-0.4,1.7-0.6c0.4-0.1,0.8-0.3,1.4-0.6c0.5-0.3,0.9-0.6,1.1-0.9
			c0.2-0.3,0.4-0.7,0.4-1.1v-0.2c0-0.6-0.2-1.1-0.6-1.6c-1.5-2-3.4-3.7-5.6-5c-2.3-1.3-4.6-2-7.1-2c-3.8,0-7,1.5-9.7,4.5
			C136.6-17.3,135.3-13.3,135.3-8.3z M155-15.9c0,0.3-0.2,0.6-0.6,0.9c-0.2,0.1-2.5,1-6.9,2.7s-6.8,2.6-6.9,2.6
			c-0.2,0-0.4-0.2-0.4-0.6c0-3.3,0.6-5.8,1.9-7.7c1.3-1.9,3-2.8,5.2-2.8c1.8,0,3.6,0.7,5.3,2C154.2-17.5,155-16.5,155-15.9z
			 M174.4-20.9c-0.1,0-0.2-0.1-0.2-0.4v-3c0-1-0.3-1.5-0.9-1.5c-0.1,0-0.2,0.1-0.4,0.2c-0.1,0-0.2,0.1-0.2,0.1
			c-1.4,0.7-3.1,1.5-4.8,2.4c-2,0.9-2.9,1.5-2.9,1.7c0,0.2,0.1,0.4,0.3,0.5c0.5,0.4,1.1,0.8,1.7,1.2c0.6,0.4,1,0.7,1.3,0.9
			c0.2,0.2,0.4,0.3,0.6,0.5c0.2,0.2,0.4,0.4,0.4,0.6c0.1,0.2,0.1,0.4,0.1,0.7V2.5c0,1-0.5,1.5-1.4,1.7c-0.3,0.1-0.8,0.2-1.3,0.3
			c-0.5,0.1-0.9,0.1-1.1,0.2c-0.2,0.1-0.4,0.2-0.6,0.4c-0.2,0.2-0.3,0.5-0.3,1c0,0.8,0.4,1.2,1.2,1.2c0.1,0,0.2,0,0.5,0
			c0.3,0,0.6-0.1,1.1-0.1c0.5,0,1-0.1,1.6-0.1C169.5,7,170.2,7,171,7c0.8,0,1.5,0,2.3,0c0.7,0,1.5,0,2.3,0c0.8,0,1.5,0.1,2.1,0.1
			c0.6,0,1.1,0.1,1.6,0.1c0.5,0.1,0.8,0.1,1.1,0.1c0.3,0,0.4,0,0.5,0c0.7,0,1-0.5,1-1.4c0-0.7-0.2-1.1-0.6-1.3s-1.4-0.3-2.8-0.4
			c-0.8,0-1.5-0.1-1.9-0.1c-1.2-0.1-1.8-0.8-1.8-2.2V1.6v-17.6c0-0.6,0.1-1.1,0.3-1.4c0.3-0.5,1.1-1.1,2.3-1.9s2.3-1.1,3.4-1.1
			c0.9,0,1.7,0.3,2.4,0.9c0.7,0.6,1.4,0.9,2,0.9c0.4,0,0.8-0.1,1.1-0.2c0.3-0.2,0.7-0.4,1.2-0.8c0.5-0.4,0.7-0.5,0.8-0.5l0.5-0.4
			c0.3-0.3,0.6-0.5,0.7-0.6c0.1-0.2,0.3-0.4,0.5-0.6c0.2-0.3,0.3-0.6,0.3-0.9v-0.1c0-1-0.6-1.7-1.9-2.3c-1.2-0.6-2.5-0.9-3.9-0.9
			c-0.9,0-1.6,0.1-2.2,0.3c-0.6,0.2-1.5,0.7-2.7,1.5c-1.3,0.8-2.4,1.6-3.4,2.3C175-21.2,174.4-20.9,174.4-20.9z M197-2v3.5
			c0,0.8-0.1,1.4-0.3,1.8c-0.2,0.4-0.8,0.7-1.6,0.8c-1.8,0.2-2.9,0.4-3.2,0.6c-0.3,0.1-0.5,0.6-0.5,1.4s0.4,1.2,1.1,1.2
			c0.1,0,0.2,0,0.4,0c0.2,0,0.6-0.1,1-0.1c0.4,0,0.9-0.1,1.4-0.1c0.5-0.1,1.1-0.1,1.8-0.1c0.7,0,1.4,0,2.1,0c0.7,0,1.4,0,2.1,0
			c0.7,0,1.3,0.1,1.8,0.1c0.5,0,1,0.1,1.4,0.1c0.4,0.1,0.8,0.1,1,0.1c0.2,0,0.4,0,0.4,0c0.6,0,0.9-0.5,0.9-1.6
			c0-0.6-0.2-0.9-0.6-1.1c-0.4-0.2-1.3-0.3-2.7-0.5c-0.8-0.1-1.3-0.5-1.4-1.4C202,2,202-0.7,202-5.3v-2.4c0-2.6,0-5.3,0.1-7.9
			c0.1-2.7,0.2-4.8,0.2-6.4l0.1-2.4c0-0.8-0.3-1.2-1-1.2h-0.1c0,0-2.7,1.3-8.1,3.9c-0.1,0-0.3,0.1-0.5,0.2c-0.2,0.1-0.4,0.2-0.6,0.2
			c-0.2,0.1-0.3,0.2-0.5,0.2c-0.2,0.1-0.3,0.2-0.4,0.4c-0.1,0.1-0.1,0.3-0.1,0.4c0,0.4,0.3,0.7,0.9,0.9c2.6,1.1,4.1,1.7,4.4,1.9
			c0.4,0.2,0.5,0.6,0.5,1.1c0,0.2,0,1,0,2.2c0,1.2,0,2.9,0,5.1V-2z M197.7-38.7c0,1,0.3,1.8,1,2.5c0.7,0.7,1.5,1,2.5,1
			c1,0,1.9-0.3,2.6-1c0.7-0.7,1-1.5,1-2.5c0-0.9-0.3-1.7-1-2.4c-0.7-0.7-1.5-1-2.5-1c-1,0-1.8,0.3-2.5,1
			C198.1-40.4,197.7-39.6,197.7-38.7z M228.7-31.1c0,2.5,0.7,4.9,2.2,7s3.7,3.8,6.6,4.9c1,0.4,3.2,1.1,6.5,1.8
			c3.3,0.8,5.8,1.8,7.4,3c2.9,2.1,4.3,4.8,4.3,8.1c0,2.9-1.1,5.3-3.2,7.3C250.5,3,247.9,4,245,4c-3.9,0-7.1-1.6-9.5-4.9
			c-0.2-0.3-0.5-0.6-0.8-1c-0.3-0.4-0.5-0.6-0.5-0.7c0-0.1-0.1-0.2-0.2-0.4c-0.1-0.2-0.1-0.3-0.1-0.5s0-0.4,0-0.6
			c0-0.2-0.1-0.7-0.1-1.2c0-0.6-0.1-1.2-0.1-1.8c-0.2-2-0.5-3.2-0.6-3.6c-0.2-0.4-0.6-0.6-1.4-0.6c-1,0-1.6,0.5-1.7,1.6
			c-0.2,2.4-0.4,4.6-0.7,6.5c-0.3,1.9-0.5,3.2-0.7,4c-0.2,0.8-0.3,1.3-0.3,1.4c0,0.8,0.4,1.1,1.3,1.1c0.2,0,0.5,0,0.9-0.1
			c0.4-0.1,0.8-0.1,1-0.1c0.7,0,1.5,0.3,2.2,1c3.1,2.7,6.8,4,11.2,4c4.5,0,8.3-1.5,11.4-4.6c3.1-3.1,4.7-6.8,4.7-11.2
			c0-3.2-0.9-6-2.6-8.4c-1.7-2.4-4-4.2-6.7-5.4c-1.1-0.5-3.3-1.1-6.7-1.9c-3.4-0.8-5.8-1.8-7.3-2.9c-2.5-1.8-3.8-4-3.8-6.7
			c0-1.9,0.7-3.6,2.1-4.9c1.4-1.4,3.1-2,5.1-2c2.9,0,5.6,1.4,8.1,4.1c1,1.1,1.7,2.3,2.3,3.5c0.6,1.2,1,2.1,1.3,2.6
			c0.3,0.5,0.8,0.8,1.5,0.8h0.1c0.9,0,1.3-0.4,1.3-1.1c0-0.1,0-0.4-0.1-0.9c-0.1-0.5-0.1-1.2-0.2-2.1c-0.1-0.9-0.1-1.9-0.1-3
			s0-2.1,0.1-3c0.1-0.9,0.1-1.7,0.2-2.2c0-0.5,0.1-0.8,0.1-0.9c0-0.4-0.1-0.7-0.4-1c-0.2-0.3-0.5-0.4-0.9-0.4
			c-0.7,0-1.3,0.5-1.8,1.5c-0.5,1-1,1.5-1.3,1.5c-0.1,0-0.6-0.2-1.4-0.7c-0.8-0.5-1.9-1-3.3-1.5c-1.4-0.5-3-0.8-4.8-0.8
			c-3.8,0-6.9,1.2-9.4,3.7C230-37.4,228.7-34.5,228.7-31.1z M264.2-8.3c0,3,0.5,5.6,1.3,7.9c0.9,2.3,2.1,4,3.5,5.2
			c1.5,1.2,3,2.1,4.5,2.7c1.6,0.6,3.2,0.9,4.8,0.9c2.5,0,5-0.6,7.3-1.8c2.3-1.2,4.2-2.8,5.8-4.8c0.4-0.5,0.6-0.9,0.6-1.1
			c0-0.7-0.4-1.1-1.2-1.1c-0.4,0-1,0.3-1.7,1c-2.5,2.4-5.4,3.6-8.8,3.6c-1.7,0-3.3-0.4-4.7-1.1c-1.4-0.7-2.4-1.5-3.2-2.4
			c-0.7-0.9-1.4-2-1.9-3.1c-0.5-1.1-0.8-2-1-2.7c-0.1-0.7-0.2-1.1-0.2-1.4c0-0.2,0.1-0.3,0.3-0.4c0.2-0.2,5.4-1.9,15.4-5.4
			c0.2,0,0.7-0.2,1.4-0.4c0.7-0.2,1.3-0.4,1.7-0.6c0.4-0.1,0.8-0.3,1.4-0.6c0.5-0.3,0.9-0.6,1.2-0.9c0.2-0.3,0.4-0.7,0.4-1.1v-0.2
			c0-0.6-0.2-1.1-0.6-1.6c-1.5-2-3.4-3.7-5.6-5c-2.3-1.3-4.6-2-7.1-2c-3.8,0-7,1.5-9.6,4.5C265.6-17.3,264.2-13.3,264.2-8.3z
			 M284-15.9c0,0.3-0.2,0.6-0.7,0.9c-0.1,0.1-2.4,1-6.9,2.7c-4.5,1.8-6.8,2.6-6.9,2.6c-0.2,0-0.4-0.2-0.4-0.6c0-3.3,0.6-5.8,1.9-7.7
			c1.3-1.9,3-2.8,5.1-2.8c1.8,0,3.6,0.7,5.3,2C283.1-17.5,284-16.5,284-15.9z M303.1-20.9V-21c0-0.1,0.1-0.2,0.1-0.3v-2.9
			c0-0.7-0.3-1.1-0.9-1.1c-0.2,0-0.4,0.1-0.7,0.3c-0.9,0.5-2,1.1-3.4,1.8c-1.7,0.9-2.8,1.5-3.1,1.7c-0.3,0.2-0.5,0.5-0.5,0.7v0.1
			c0,0.2,0.1,0.4,0.4,0.7c1.7,1.3,2.7,2.1,3,2.4c0.2,0.3,0.4,0.9,0.4,1.8V1.7c0,0.8-0.1,1.3-0.3,1.7s-0.8,0.7-1.6,0.8
			c-1.3,0.2-2.1,0.4-2.4,0.5c-0.3,0.2-0.5,0.6-0.5,1.3c0,0.9,0.4,1.3,1.2,1.3c0.1,0,0.2,0,0.4,0c0.2,0,0.5-0.1,0.9-0.1
			c0.4,0,0.8-0.1,1.3-0.1c0.5-0.1,1.1-0.1,1.8-0.1c0.7,0,1.3,0,2,0c0.7,0,1.4,0,2.1,0c0.7,0,1.3,0.1,1.8,0.1c0.5,0.1,1,0.1,1.4,0.2
			c0.4,0.1,0.8,0.1,1,0.1c0.3,0,0.4,0,0.5,0c0.6,0,0.9-0.4,0.9-1.3c0-0.6-0.2-1-0.4-1.2c-0.2-0.2-1.4-0.5-3.5-0.8
			c-1.1-0.2-1.7-0.8-1.7-2.1V1.8v-17.4c0-0.3,0-0.6,0.1-1c0.2-0.9,1-1.9,2.5-3c1.5-1.1,3.2-1.7,5-1.7c1.3,0,2.7,0.3,4.1,1
			c1.4,0.7,2.5,1.8,3.2,3.4c0.7,1.7,1,4.4,1,8V2.5c0,0.6-0.1,1-0.3,1.3c-0.2,0.2-0.5,0.4-1,0.5c-0.3,0-0.6,0.1-1.1,0.2
			c-1.2,0.2-2,0.4-2.3,0.5c-0.3,0.1-0.4,0.5-0.4,1c0,1,0.3,1.4,1,1.4h0.4c0.2-0.1,0.6-0.1,0.9-0.2c0.4,0,0.8-0.1,1.3-0.1
			c0.5-0.1,1-0.1,1.6-0.1c0.6,0,1.3,0,1.9,0c1.1,0,2.1,0,3,0.1c0.9,0.1,1.7,0.1,2.2,0.2c0.5,0.1,0.9,0.1,1,0.1
			c0.8,0,1.1-0.5,1.1-1.4c0-0.8-0.4-1.3-1.1-1.4c-0.2,0-0.5-0.1-0.9-0.1c-0.4-0.1-0.7-0.1-0.8-0.1c-0.1,0-0.3,0-0.6-0.1
			c-0.3-0.1-0.4-0.1-0.5-0.2c-0.1,0-0.2-0.1-0.3-0.2c-0.2-0.1-0.2-0.2-0.3-0.4c0-0.1-0.1-0.3-0.1-0.5c-0.1-0.2-0.1-0.5-0.1-0.7V2.1
			c0-3,0-5.4,0-7.3c0-1.9,0-3.2,0-4v-1.4c0-1.7-0.1-2.9-0.2-3.7c-0.2-2.2-0.7-4-1.4-5.5c-0.8-1.5-1.7-2.6-2.8-3.3
			c-1.1-0.7-2.2-1.2-3.2-1.4c-1-0.3-2-0.4-3-0.4h-0.2c-1.2,0-2.4,0.2-3.5,0.5c-1.1,0.3-2,0.7-2.8,1.1c-0.8,0.4-1.4,0.9-2,1.3
			c-0.6,0.4-1,0.8-1.3,1.1c-0.3,0.3-0.5,0.4-0.5,0.4h-0.1C303.1-20.6,303.1-20.7,303.1-20.9z M336.3-2v3.5c0,0.8-0.1,1.4-0.3,1.8
			c-0.2,0.4-0.8,0.7-1.6,0.8c-1.8,0.2-2.9,0.4-3.2,0.6c-0.3,0.1-0.5,0.6-0.5,1.4s0.4,1.2,1.2,1.2c0,0,0.2,0,0.4,0
			c0.2,0,0.6-0.1,1-0.1c0.4,0,0.9-0.1,1.4-0.1c0.5-0.1,1.1-0.1,1.8-0.1c0.7,0,1.4,0,2.1,0c0.7,0,1.4,0,2.1,0c0.7,0,1.3,0.1,1.8,0.1
			c0.5,0,1,0.1,1.4,0.1c0.4,0.1,0.8,0.1,1,0.1c0.2,0,0.4,0,0.4,0c0.6,0,0.9-0.5,0.9-1.6c0-0.6-0.2-0.9-0.6-1.1
			c-0.4-0.2-1.3-0.3-2.7-0.5c-0.8-0.1-1.3-0.5-1.4-1.4s-0.2-3.5-0.2-8.1v-2.4c0-2.6,0-5.3,0.1-7.9c0.1-2.7,0.2-4.8,0.3-6.4l0.1-2.4
			c0-0.8-0.3-1.2-1-1.2h-0.1c-0.1,0-2.8,1.3-8.1,3.9c-0.1,0-0.3,0.1-0.5,0.2c-0.2,0.1-0.4,0.2-0.6,0.2c-0.2,0.1-0.3,0.2-0.5,0.2
			c-0.2,0.1-0.3,0.2-0.4,0.4c-0.1,0.1-0.1,0.3-0.1,0.4c0,0.4,0.3,0.7,0.9,0.9c2.6,1.1,4.1,1.7,4.4,1.9c0.4,0.2,0.5,0.6,0.5,1.1
			c0,0.2,0,1,0,2.2c0,1.2,0,2.9,0,5.1V-2z M337-38.7c0,1,0.3,1.8,1,2.5c0.7,0.7,1.5,1,2.5,1c1,0,1.9-0.3,2.5-1
			c0.7-0.7,1.1-1.5,1.1-2.5c0-0.9-0.4-1.7-1.1-2.4c-0.7-0.7-1.5-1-2.5-1c-1,0-1.8,0.3-2.5,1C337.4-40.4,337-39.6,337-38.7z"/>
	</g>
	<g>
		<path class="st2" d="M334.2,129.1c3.6,0,6.8-1.2,9.5-3.6c0.2-0.2,0.5-0.4,0.6-0.4c0.1,0,0.3,0.2,0.7,0.5c0.3,0.3,0.6,0.5,0.7,0.5
			c0.4,0,0.6-0.3,0.6-0.9v-7.8c0-0.2,0-0.4,0-0.5c0.1-0.4,0.5-0.7,1.3-0.9c0.8-0.3,1.2-0.7,1.2-1.2c0-0.2-0.1-0.5-0.3-0.7
			c-0.2-0.2-0.5-0.3-0.9-0.3c-0.1,0-0.4,0-0.8,0.1c-0.4,0-1,0.1-1.8,0.1c-0.8,0-1.6,0-2.4,0h-0.1c-0.8,0-1.6,0-2.3,0
			c-0.7,0-1.3-0.1-1.7-0.1c-0.4,0-0.7-0.1-0.7-0.1c-0.7,0-1,0.4-1,1c0,0.7,0.4,1,1.3,1.1c0.3,0,0.8,0.1,1.3,0.1
			c1.2,0.1,2.1,0.2,2.4,0.4c0.4,0.2,0.6,0.6,0.6,1.2v5.2c0,0.4,0,0.6-0.1,0.8c-0.3,0.5-1.2,1.2-2.7,1.9c-1.5,0.7-3.2,1.1-4.9,1.1
			c-1.3,0-2.6-0.3-3.9-0.8c-1.3-0.5-2.6-1.3-3.9-2.5c-1.3-1.1-2.3-2.7-3.1-4.9c-0.8-2.1-1.2-4.7-1.2-7.6c0-2.4,0.3-4.5,1-6.3
			c0.6-1.8,1.5-3.2,2.5-4.2c1-1,2.1-1.7,3.3-2.2c1.2-0.5,2.4-0.7,3.6-0.7c2,0,3.8,0.5,5.6,1.5c1.8,1,3.3,2.3,4.4,3.9
			c0.6,0.9,1.1,1.7,1.3,2.6c0.2,0.8,0.4,1.4,0.5,1.7c0.1,0.3,0.3,0.4,0.8,0.4c0.9,0,1.3-0.2,1.3-0.7c0,0,0-0.2,0-0.5
			c0-0.3-0.1-0.7-0.1-1.2c-0.1-0.5-0.1-1.1-0.2-1.8c-0.1-0.7-0.1-1.5-0.1-2.4c0-0.9,0-1.8,0-2.7v-1.3c0-0.4-0.2-0.6-0.6-0.6
			c-0.2,0-0.4,0-0.6,0.1c-0.1,0-0.4,0.3-0.8,0.9c-0.5,0.6-0.9,0.9-1.2,0.9h-0.2c-0.1,0-0.4-0.2-0.9-0.5c-0.6-0.3-1.2-0.7-1.9-1.1
			c-0.7-0.4-1.7-0.7-2.9-1c-1.2-0.3-2.5-0.5-3.7-0.5c-4.3,0-8,1.6-11,4.7c-3,3.1-4.6,7-4.6,11.7c0,4.8,1.6,9,4.9,12.4
			C326,127.4,329.8,129.1,334.2,129.1z"/>
		<path class="st2" d="M350.6,112c0,0.5,0.2,0.9,0.6,1.2c0.4,0.3,0.8,0.4,1.3,0.4c0.4,0,0.7-0.2,1-0.5c1-2.1,2.4-3.1,4-3.1
			c1.1,0,2,0.4,2.7,1.2c0.7,0.9,1.1,2.1,1.1,3.7v1.7c0,0.4-0.1,0.6-0.4,0.6l-0.6,0c-0.4,0-1,0.1-1.6,0.2c-0.6,0.1-1.3,0.2-2,0.4
			c-0.7,0.2-1.4,0.4-2.2,0.7c-0.7,0.3-1.3,0.6-1.8,1c-1.3,1-1.9,2.4-1.9,4.1v0c0,1.5,0.5,2.7,1.5,3.7c1,1,2.3,1.5,3.8,1.5
			c1.5,0,2.9-0.4,4.3-1.3c0.3-0.2,0.6-0.4,0.8-0.6c0.2-0.2,0.3-0.3,0.3-0.4c0-0.1,0.1-0.1,0.1-0.1c0,0,0,0,0,0c0,0,0,0,0,0l0.1,0.2
			c0.1,0.2,0.3,0.3,0.5,0.5c0.2,0.2,0.4,0.4,0.7,0.6c0.2,0.2,0.5,0.4,0.9,0.5s0.7,0.2,1.1,0.2c1.1,0,1.9-0.4,2.6-1.3
			c0.7-0.9,1-1.7,1-2.4c0-0.4-0.1-0.6-0.4-0.6c-0.2,0-0.3,0.1-0.5,0.4c-0.1,0.3-0.3,0.5-0.6,0.8c-0.2,0.2-0.6,0.4-1,0.4
			c-0.2,0-0.4,0-0.6-0.1c-0.2-0.1-0.4-0.3-0.6-0.6c-0.2-0.3-0.3-0.8-0.3-1.3v-9.2c0-0.4,0-1-0.1-1.7c-0.1-1.1-0.4-2-1-2.7
			c-0.5-0.7-1.2-1.3-1.9-1.6c-0.8-0.3-1.5-0.5-2.1-0.6c-0.6-0.1-1.2-0.2-1.8-0.2c-1.8,0-3.5,0.5-4.9,1.4
			C351.3,110.1,350.6,111.1,350.6,112z"/>
		<path class="st3" d="M357.2,126.3c-0.9,0-1.6-0.2-2-0.6c-0.6-0.5-0.9-1.4-0.9-2.5c0-1.1,0.4-1.9,1.1-2.5c0.7-0.6,1.6-1.1,2.7-1.3
			c1.1-0.2,2.1-0.4,2.8-0.4c0.2,0,0.3,0.1,0.4,0.2c0,0.2,0.1,0.5,0.1,1.1v1.9v1.1c0,0.5-0.1,0.8-0.3,1c-0.1,0.2-0.3,0.4-0.6,0.6
			s-0.7,0.5-1.3,0.8C358.5,126.2,357.9,126.3,357.2,126.3z"/>
		<path class="st2" d="M373.2,123.3v4.1c0,1.3,0,2.2,0,2.9c0,0.7,0,1.1,0,1.3c0,0.8-0.1,1.4-0.3,1.9c-0.2,0.5-0.4,0.9-0.7,1.1
			c-0.3,0.2-0.6,0.4-0.8,0.5c-0.2,0.1-0.5,0.1-0.7,0.1c-0.1,0-0.4,0-0.7-0.1c-0.3-0.1-0.6-0.1-0.7-0.1c-0.6,0-1.1,0.2-1.5,0.6
			c-0.4,0.4-0.6,0.9-0.6,1.4c0,0.5,0.2,0.8,0.5,1.1c0.3,0.3,0.8,0.5,1.3,0.5c0.8,0,1.8-0.5,2.9-1.4c1.1-0.9,2-1.7,2.5-2.4
			c0.6-0.7,1.1-1.3,1.5-1.9c0.5-0.7,0.7-1.4,0.7-2c0-0.3,0-1,0-2.2c0-1.2-0.1-2.8-0.1-4.9c0-2.1,0-4.4,0-6.8c0-1.6,0-3,0-4.4
			c0-1.3,0-2.4,0-3.1c0-0.8,0-1.2,0-1.4c0-0.5-0.2-0.8-0.5-0.8c-0.1,0-0.2,0-0.3,0.1c-3,1.3-4.6,2-5,2.2c-0.4,0.2-0.6,0.4-0.6,0.6
			c0,0.2,0.1,0.4,0.4,0.5c0.2,0.2,0.5,0.3,0.8,0.5c0.3,0.2,0.5,0.3,0.7,0.4c0.1,0.1,0.3,0.2,0.5,0.3c0.2,0.1,0.3,0.2,0.4,0.2
			l0.2,0.2c0.1,0.1,0.1,0.2,0.2,0.2c0,0.1,0,0.2,0,0.2c0,0.1,0,0.2,0,0.4c0,0.2,0,0.7,0,1.6c0,0.9,0,2,0,3.5
			C373.2,119.9,373.2,121.5,373.2,123.3z"/>
		<path class="st2" d="M373.7,99.9c0,0.6,0.2,1.1,0.7,1.5c0.4,0.4,1,0.6,1.6,0.6c0.6,0,1.1-0.2,1.6-0.7c0.5-0.4,0.7-1,0.7-1.6
			s-0.2-1.1-0.7-1.5c-0.4-0.4-1-0.6-1.6-0.6c-0.6,0-1.2,0.2-1.6,0.6C373.9,98.8,373.7,99.3,373.7,99.9z"/>
		<path class="st2" d="M381,112c0,0.5,0.2,0.9,0.6,1.2c0.4,0.3,0.8,0.4,1.3,0.4c0.4,0,0.7-0.2,1-0.5c1-2.1,2.4-3.1,4-3.1
			c1.1,0,2,0.4,2.7,1.2c0.7,0.9,1.1,2.1,1.1,3.7v1.7c0,0.4-0.1,0.6-0.4,0.6l-0.6,0c-0.4,0-0.9,0.1-1.6,0.2c-0.6,0.1-1.3,0.2-2,0.4
			c-0.7,0.2-1.4,0.4-2.2,0.7c-0.7,0.3-1.3,0.6-1.8,1c-1.3,1-1.9,2.4-1.9,4.1v0c0,1.5,0.5,2.7,1.5,3.7c1,1,2.3,1.5,3.8,1.5
			c1.5,0,2.9-0.4,4.3-1.3c0.3-0.2,0.6-0.4,0.8-0.6c0.2-0.2,0.3-0.3,0.3-0.4c0-0.1,0.1-0.1,0.1-0.1c0,0,0,0,0,0c0,0,0,0,0.1,0
			l0.1,0.2c0.1,0.2,0.3,0.3,0.5,0.5c0.2,0.2,0.4,0.4,0.7,0.6c0.2,0.2,0.5,0.4,0.9,0.5c0.4,0.1,0.7,0.2,1.1,0.2
			c1.1,0,1.9-0.4,2.6-1.3c0.7-0.9,1-1.7,1-2.4c0-0.4-0.1-0.6-0.4-0.6c-0.2,0-0.3,0.1-0.5,0.4c-0.1,0.3-0.3,0.5-0.6,0.8
			c-0.2,0.2-0.6,0.4-1,0.4c-0.2,0-0.4,0-0.6-0.1c-0.2-0.1-0.4-0.3-0.6-0.6c-0.2-0.3-0.3-0.8-0.3-1.3v-9.2c0-0.4,0-1-0.1-1.7
			c-0.1-1.1-0.4-2-1-2.7c-0.5-0.7-1.2-1.3-1.9-1.6c-0.8-0.3-1.5-0.5-2.1-0.6c-0.6-0.1-1.2-0.2-1.8-0.2c-1.8,0-3.5,0.5-4.9,1.4
			C381.7,110.1,381,111.1,381,112z"/>
		<path class="st4" d="M387.6,126.3c-0.9,0-1.6-0.2-2-0.6c-0.6-0.5-0.9-1.4-0.9-2.5c0-1.1,0.4-1.9,1.1-2.5c0.7-0.6,1.6-1.1,2.7-1.3
			c1.1-0.2,2.1-0.4,2.8-0.4c0.2,0,0.3,0.1,0.4,0.2c0.1,0.2,0.1,0.5,0.1,1.1v1.9v1.1c0,0.5-0.1,0.8-0.3,1c-0.2,0.2-0.4,0.4-0.6,0.6
			s-0.7,0.5-1.3,0.8C388.9,126.2,388.3,126.3,387.6,126.3z"/>
		<path class="st2" d="M412.9,127.6c0,0.4,0.2,0.6,0.5,0.6c0,0,0.1,0,0.3,0c0.2,0,0.4,0,0.6-0.1c0.3,0,0.6-0.1,0.9-0.1
			c0.3,0,0.7-0.1,1.1-0.1c0.4,0,0.9,0,1.3,0s0.9,0,1.3,0c0.5,0,0.8,0,1.2,0.1c0.3,0,0.6,0.1,0.9,0.1c0.3,0,0.5,0.1,0.6,0.1
			c0.2,0,0.2,0,0.3,0c0.4,0,0.6-0.3,0.6-1c0-0.5-0.3-0.8-0.8-0.9c-0.5-0.1-0.8-0.1-1-0.2c-0.2,0-0.4-0.2-0.5-0.4
			c-0.2-0.2-0.2-0.5-0.2-1c-0.1-4.2-0.2-7-0.4-8.4c-0.2-1.4-0.5-2.7-1-3.9c-1.2-2.8-3.3-4.2-6.2-4.2c-0.9,0-1.8,0.1-2.7,0.4
			c-0.9,0.3-1.5,0.6-2,0.9c-0.5,0.3-0.7,0.4-0.8,0.4c-0.1,0-0.2-0.1-0.2-0.3l0-14.3c0-0.6-0.2-0.9-0.7-0.9h0c-0.1,0-1.9,1-5.3,3
			c-0.5,0.3-0.8,0.6-0.8,0.9c0,0.4,0.5,0.8,1.6,1c1.1,0.2,1.6,0.6,1.7,0.9c0.1,0.7,0.2,4.5,0.2,11.4v0.2c0,3.8-0.1,8.1-0.2,12.7
			c0,0.3-0.1,0.6-0.1,0.7c0,0.1-0.1,0.3-0.3,0.5c-0.2,0.2-0.4,0.3-0.8,0.4c-0.8,0.2-1.2,0.3-1.4,0.4c-0.2,0.1-0.3,0.3-0.3,0.7
			c0,0.6,0.2,0.9,0.5,0.9c0,0,0.1,0,0.3,0c0.1,0,0.4,0,0.6-0.1c0.3,0,0.6-0.1,0.9-0.1c0.4,0,0.7-0.1,1.2-0.1c0.4,0,0.9,0,1.3,0
			c0.4,0,0.9,0,1.3,0c0.4,0,0.8,0,1.2,0.1c0.3,0,0.6,0.1,0.9,0.1c0.3,0,0.5,0.1,0.6,0.1c0.1,0,0.2,0,0.3,0c0.4,0,0.5-0.3,0.5-1
			c0-0.4-0.2-0.6-0.5-0.8c-0.3-0.2-0.7-0.2-1.1-0.2c-0.4,0-0.8-0.1-1.2-0.2c-0.4-0.2-0.6-0.5-0.7-1c-0.1-0.2-0.1-4-0.1-11.5
			c0-0.3,0-0.5,0-0.6c0.1-0.5,0.6-1,1.4-1.5c0.8-0.5,1.7-0.7,2.6-0.7c1.4,0,2.6,0.6,3.8,1.7c0.7,0.8,1.3,1.9,1.7,3.2
			c0.4,1.4,0.6,3.5,0.6,6.6c0,1.8,0,2.9-0.1,3.3c-0.1,0.4-0.4,0.7-0.8,0.7c-0.2,0-0.5,0.1-0.8,0.1c-0.3,0-0.5,0.1-0.6,0.1
			c-0.1,0-0.3,0-0.5,0.1c-0.2,0-0.3,0.1-0.4,0.1c-0.1,0-0.1,0.1-0.2,0.2c-0.1,0.1-0.1,0.2-0.1,0.2c0,0.1,0,0.2,0,0.4V127.6z"/>
		<path class="st2" d="M427.4,138.3c1.1,0,2.2-0.9,3.4-2.9c2.5-3.8,5.3-9.4,8.3-16.7c0.8-2.1,1.6-4.1,2.4-6.2c0.4-1,0.6-1.5,0.7-1.7
			c0.1-0.2,0.3-0.3,0.6-0.3c0.8-0.1,1.4-0.2,1.5-0.2c0.2-0.1,0.3-0.3,0.3-0.6c0-0.6-0.2-0.9-0.6-0.9c-0.1,0-0.2,0-0.5,0
			c-0.3,0-0.7,0-1.2,0.1c-0.5,0-1.1,0-1.7,0h0c-0.6,0-1.2,0-1.8,0c-0.6,0-1-0.1-1.3-0.1c-0.3,0-0.5,0-0.6,0c-0.6,0-0.9,0.3-0.9,0.8
			c0,0.6,0.3,0.9,0.9,0.9c0.2,0,0.4,0,0.7,0c0.3,0,0.5,0,0.6,0c0.1,0,0.3,0,0.4,0.1c0.2,0,0.3,0.1,0.3,0.2c0.1,0.1,0.1,0.2,0.2,0.3
			c0.1,0.1,0.1,0.3,0.1,0.5c0,1.2-1.3,4.9-3.8,10.9c0,0-0.1,0.1-0.1,0.2c0,0.1-0.1,0.1-0.1,0.2c-0.1,0.1-0.1,0.1-0.2,0.1
			c-0.2,0-0.3-0.1-0.3-0.3c-1-1.8-1.9-3.6-2.7-5.4c-0.8-1.8-1.4-3.2-1.8-4.2c-0.4-1-0.6-1.6-0.6-1.7c0-0.4,0.2-0.6,0.7-0.6
			c0.1,0,0.2,0,0.4,0c0.2,0,0.3,0,0.3-0.1c0.1,0,0.1,0,0.3,0c0.1,0,0.2,0,0.2,0c0,0,0.1,0,0.2,0c0.1,0,0.1-0.1,0.1-0.1
			c0,0,0-0.1,0.1-0.1c0,0,0.1-0.1,0.1-0.2s0-0.1,0-0.2c0-0.1,0-0.2,0-0.3c0-0.5-0.2-0.7-0.6-0.7c-0.1,0-0.2,0-0.6,0
			c-0.3,0-0.8,0-1.3,0.1c-0.6,0-1.2,0-1.8,0c-0.6,0-1.2,0-1.8,0c-0.6,0-1-0.1-1.3-0.1c-0.3,0-0.5,0-0.5,0c-0.4,0-0.6,0.2-0.6,0.8
			c0,0.5,0.1,0.7,0.3,0.8c0.2,0.1,0.4,0.2,0.7,0.2c0.3,0,0.6,0.2,0.7,0.5c0.3,0.4,1.1,2,2.5,4.8c3.4,6.9,5.2,10.7,5.2,11.5
			c0,0.6-0.4,1.5-1.1,2.7c-0.7,1.2-1.4,2.1-2.1,2.7c-0.4,0.4-1,0.8-1.7,1.3c-0.8,0.5-1.4,0.9-1.7,1.3c-0.4,0.4-0.6,0.9-0.6,1.4
			c0,0.5,0.2,0.9,0.5,1.2C426.5,138.2,426.9,138.3,427.4,138.3z"/>
		<path class="st2" d="M446.2,112c0,0.5,0.2,0.9,0.6,1.2c0.4,0.3,0.8,0.4,1.3,0.4c0.4,0,0.7-0.2,1-0.5c1-2.1,2.4-3.1,4-3.1
			c1.1,0,2,0.4,2.7,1.2c0.7,0.9,1.1,2.1,1.1,3.7v1.7c0,0.4-0.1,0.6-0.4,0.6l-0.6,0c-0.4,0-0.9,0.1-1.6,0.2c-0.6,0.1-1.3,0.2-2,0.4
			c-0.7,0.2-1.4,0.4-2.2,0.7c-0.7,0.3-1.3,0.6-1.8,1c-1.3,1-1.9,2.4-1.9,4.1v0c0,1.5,0.5,2.7,1.5,3.7c1,1,2.3,1.5,3.8,1.5
			c1.5,0,2.9-0.4,4.3-1.3c0.3-0.2,0.6-0.4,0.8-0.6c0.2-0.2,0.3-0.3,0.3-0.4c0-0.1,0.1-0.1,0.1-0.1c0,0,0,0,0,0c0,0,0,0,0.1,0
			l0.1,0.2c0.1,0.2,0.3,0.3,0.5,0.5c0.2,0.2,0.4,0.4,0.7,0.6s0.5,0.4,0.9,0.5s0.7,0.2,1.1,0.2c1.1,0,1.9-0.4,2.6-1.3
			c0.7-0.9,1-1.7,1-2.4c0-0.4-0.1-0.6-0.4-0.6c-0.2,0-0.3,0.1-0.5,0.4c-0.1,0.3-0.3,0.5-0.6,0.8c-0.2,0.2-0.6,0.4-1,0.4
			c-0.2,0-0.4,0-0.6-0.1c-0.2-0.1-0.4-0.3-0.6-0.6c-0.2-0.3-0.3-0.8-0.3-1.3v-9.2c0-0.4,0-1-0.1-1.7c-0.1-1.1-0.4-2-1-2.7
			c-0.5-0.7-1.2-1.3-2-1.6c-0.8-0.3-1.5-0.5-2.1-0.6c-0.6-0.1-1.2-0.2-1.8-0.2c-1.8,0-3.5,0.5-4.9,1.4
			C446.9,110.1,446.2,111.1,446.2,112z"/>
		<path class="st5" d="M452.8,126.3c-0.9,0-1.6-0.2-2-0.6c-0.6-0.5-1-1.4-1-2.5c0-1.1,0.4-1.9,1.1-2.5c0.7-0.6,1.6-1.1,2.7-1.3
			c1.1-0.2,2.1-0.4,2.8-0.4c0.2,0,0.3,0.1,0.4,0.2c0.1,0.2,0.1,0.5,0.1,1.1v1.9v1.1c0,0.5-0.1,0.8-0.3,1c-0.2,0.2-0.4,0.4-0.6,0.6
			c-0.2,0.2-0.7,0.5-1.3,0.8C454.1,126.2,453.5,126.3,452.8,126.3z"/>
		<path class="st2" d="M471,110.5L471,110.5c0-0.2,0.1-0.2,0.1-0.3v-1.8c0-0.5-0.2-0.7-0.5-0.7c-0.1,0-0.3,0.1-0.5,0.2
			c-0.6,0.3-1.3,0.7-2.1,1.1c-1.1,0.6-1.7,0.9-2,1.1c-0.2,0.1-0.3,0.3-0.3,0.4v0c0,0.1,0.1,0.3,0.3,0.5c1.1,0.8,1.7,1.3,1.9,1.5
			c0.1,0.2,0.2,0.6,0.2,1.1v11.1c0,0.5-0.1,0.8-0.2,1.1c-0.1,0.2-0.5,0.4-1,0.5c-0.8,0.1-1.3,0.2-1.5,0.3c-0.2,0.1-0.3,0.4-0.3,0.8
			c0,0.5,0.3,0.8,0.8,0.8c0,0,0.1,0,0.3,0c0.2,0,0.4,0,0.6-0.1c0.2,0,0.5-0.1,0.8-0.1c0.3,0,0.7-0.1,1.1-0.1c0.4,0,0.8,0,1.3,0
			c0.4,0,0.9,0,1.3,0c0.4,0,0.8,0,1.2,0.1c0.3,0,0.6,0.1,0.9,0.1c0.3,0,0.5,0.1,0.7,0.1c0.2,0,0.3,0,0.3,0c0.4,0,0.6-0.3,0.6-0.8
			c0-0.4-0.1-0.6-0.3-0.8c-0.1-0.1-0.9-0.3-2.2-0.5c-0.7-0.1-1-0.5-1-1.3v-0.1v-11c0-0.2,0-0.4,0.1-0.6c0.1-0.6,0.7-1.2,1.6-1.9
			c0.9-0.7,2-1.1,3.2-1.1c0.8,0,1.7,0.2,2.6,0.6c0.9,0.4,1.6,1.1,2,2.2c0.4,1.1,0.6,2.8,0.6,5v7.2c0,0.4-0.1,0.7-0.2,0.8
			c-0.1,0.1-0.3,0.2-0.6,0.3c-0.2,0-0.4,0.1-0.7,0.1c-0.8,0.1-1.3,0.2-1.4,0.3c-0.2,0.1-0.3,0.3-0.3,0.6c0,0.6,0.2,0.9,0.6,0.9h0.2
			c0.2,0,0.3-0.1,0.6-0.1c0.2,0,0.5-0.1,0.8-0.1c0.3,0,0.6-0.1,1-0.1c0.4,0,0.8,0,1.2,0c0.7,0,1.3,0,1.9,0.1c0.6,0,1.1,0.1,1.4,0.1
			c0.3,0,0.5,0.1,0.6,0.1c0.5,0,0.7-0.3,0.7-0.9c0-0.5-0.2-0.8-0.7-0.9c-0.1,0-0.3-0.1-0.6-0.1c-0.3,0-0.4-0.1-0.5-0.1
			c-0.1,0-0.2,0-0.4-0.1c-0.2-0.1-0.3-0.1-0.3-0.1c0,0-0.1-0.1-0.2-0.2c-0.1-0.1-0.1-0.2-0.2-0.2c0-0.1,0-0.2-0.1-0.3
			c0-0.1,0-0.3,0-0.4v-0.1c0-1.9,0-3.4,0-4.6c0-1.2,0-2,0-2.5v-0.9c0-1.1,0-1.8-0.1-2.4c-0.1-1.4-0.4-2.5-0.9-3.4
			c-0.5-0.9-1.1-1.6-1.8-2.1c-0.7-0.4-1.4-0.7-2-0.9s-1.2-0.2-1.9-0.2h-0.1c-0.8,0-1.5,0.1-2.2,0.3s-1.3,0.4-1.8,0.7
			c-0.5,0.3-0.9,0.5-1.3,0.8c-0.4,0.3-0.6,0.5-0.8,0.7s-0.3,0.3-0.3,0.3h-0.1C471.1,110.7,471,110.6,471,110.5z"/>
		<path class="st2" d="M489,112c0,0.5,0.2,0.9,0.6,1.2c0.4,0.3,0.8,0.4,1.3,0.4c0.4,0,0.7-0.2,1-0.5c1-2.1,2.4-3.1,4-3.1
			c1.1,0,2,0.4,2.7,1.2c0.7,0.9,1.1,2.1,1.1,3.7v1.7c0,0.4-0.1,0.6-0.4,0.6l-0.6,0c-0.4,0-0.9,0.1-1.6,0.2c-0.6,0.1-1.3,0.2-2,0.4
			c-0.7,0.2-1.4,0.4-2.2,0.7c-0.7,0.3-1.3,0.6-1.8,1c-1.3,1-2,2.4-2,4.1v0c0,1.5,0.5,2.7,1.5,3.7c1,1,2.3,1.5,3.8,1.5
			c1.5,0,2.9-0.4,4.3-1.3c0.3-0.2,0.6-0.4,0.8-0.6c0.2-0.2,0.3-0.3,0.3-0.4c0-0.1,0.1-0.1,0.1-0.1c0,0,0.1,0,0.1,0c0,0,0,0,0,0
			l0.1,0.2c0.1,0.2,0.3,0.3,0.5,0.5s0.4,0.4,0.7,0.6c0.2,0.2,0.6,0.4,0.9,0.5c0.4,0.1,0.7,0.2,1.1,0.2c1.1,0,1.9-0.4,2.6-1.3
			c0.7-0.9,1-1.7,1-2.4c0-0.4-0.1-0.6-0.4-0.6c-0.2,0-0.3,0.1-0.5,0.4c-0.1,0.3-0.3,0.5-0.6,0.8c-0.2,0.2-0.6,0.4-1,0.4
			c-0.2,0-0.4,0-0.6-0.1c-0.2-0.1-0.4-0.3-0.6-0.6c-0.2-0.3-0.3-0.8-0.3-1.3v-9.2c0-0.4,0-1-0.1-1.7c-0.1-1.1-0.4-2-1-2.7
			c-0.5-0.7-1.2-1.3-1.9-1.6c-0.8-0.3-1.5-0.5-2.1-0.6s-1.2-0.2-1.8-0.2c-1.8,0-3.5,0.5-4.9,1.4C489.7,110.1,489,111.1,489,112z"/>
		<path class="st4" d="M495.6,126.3c-0.9,0-1.6-0.2-2-0.6c-0.6-0.5-1-1.4-1-2.5c0-1.1,0.4-1.9,1.1-2.5c0.7-0.6,1.6-1.1,2.7-1.3
			c1.1-0.2,2.1-0.4,2.8-0.4c0.2,0,0.3,0.1,0.4,0.2c0,0.2,0.1,0.5,0.1,1.1v1.9v1.1c0,0.5-0.1,0.8-0.3,1c-0.2,0.2-0.3,0.4-0.6,0.6
			c-0.2,0.2-0.7,0.5-1.3,0.8C496.9,126.2,496.3,126.3,495.6,126.3z"/>
	</g>
</g>
</svg>
